M48
;DRILL file {KiCad (5.0.0)} date 03/26/19 16:33:11
;FORMAT={-:-/ absolute / inch / decimal}
FMAT,2
INCH,TZ
T1C0.0236
T2C0.0315
T3C0.0512
%
G90
G05
M72
T1
X2.45Y-3.95
X3.1Y-3.85
X3.1591Y-3.85
X3.6Y-3.9909
X3.6Y-4.05
X5.25Y-3.3409
X5.25Y-3.4
X3.2909Y-3.85
X3.35Y-3.85
X2.5091Y-3.95
T2
X4.6Y-3.35
X4.6Y-3.45
X4.6Y-3.55
X4.6Y-3.65
X4.9Y-3.35
X4.9Y-3.45
X4.9Y-3.55
X4.9Y-3.65
X3.15Y-4.25
X3.45Y-4.25
X3.Y-3.35
X3.Y-3.45
X3.Y-3.55
X3.Y-3.65
X3.3Y-3.35
X3.3Y-3.45
X3.3Y-3.55
X3.3Y-3.65
X2.6Y-3.2
X2.9Y-3.2
X3.9713Y-2.5
X4.05Y-2.5
X3.2713Y-3.
X3.35Y-3.
X4.2Y-3.35
X4.2Y-3.45
X4.2Y-3.55
X4.2Y-3.65
X4.5Y-3.35
X4.5Y-3.45
X4.5Y-3.55
X4.5Y-3.65
X3.4Y-3.35
X3.4Y-3.45
X3.4Y-3.55
X3.4Y-3.65
X3.7Y-3.35
X3.7Y-3.45
X3.7Y-3.55
X3.7Y-3.65
X2.65Y-3.8
X2.65Y-4.1
X4.65Y-3.8
X4.65Y-4.1
X3.8Y-2.7213
X3.8Y-2.8
X4.Y-2.75
X4.0787Y-2.75
X4.9Y-3.8016
X4.9Y-3.9
X2.6Y-3.35
X2.6Y-3.45
X2.6Y-3.55
X2.6Y-3.65
X2.9Y-3.35
X2.9Y-3.45
X2.9Y-3.55
X2.9Y-3.65
X4.9Y-3.05
X5.2Y-3.05
X4.8Y-3.2
X5.1Y-3.2
X2.9Y-3.8516
X2.9Y-3.95
X5.05Y-3.35
X5.05Y-3.65
X5.4Y-3.5
X5.4Y-3.8
X3.8Y-3.35
X3.8Y-3.45
X3.8Y-3.55
X3.8Y-3.65
X4.1Y-3.35
X4.1Y-3.45
X4.1Y-3.55
X4.1Y-3.65
X4.4Y-3.2
X4.7Y-3.2
X4.2Y-2.9
X4.2Y-3.2
X3.1Y-4.05
X3.4Y-4.05
X3.55Y-3.85
X3.85Y-3.85
X2.45Y-3.5
X2.45Y-3.8
X3.7213Y-2.5
X3.8Y-2.5
X3.5Y-3.
X3.8Y-3.
X3.Y-3.2
X3.3Y-3.2
X3.5Y-2.55
X3.5Y-2.85
X3.95Y-3.15
X4.0287Y-3.15
X4.4016Y-3.8
X4.5Y-3.8
T3
X2.23Y-3.24
X2.3678Y-3.24
X4.6522Y-2.8
X4.79Y-2.8
X4.9278Y-2.8
T0
M30
