G04 #@! TF.GenerationSoftware,KiCad,Pcbnew,(5.0.0)*
G04 #@! TF.CreationDate,2019-03-26T16:32:36-04:00*
G04 #@! TF.ProjectId,EEG,4545472E6B696361645F706362000000,v01*
G04 #@! TF.SameCoordinates,Original*
G04 #@! TF.FileFunction,Copper,L2,Bot,Signal*
G04 #@! TF.FilePolarity,Positive*
%FSLAX46Y46*%
G04 Gerber Fmt 4.6, Leading zero omitted, Abs format (unit mm)*
G04 Created by KiCad (PCBNEW (5.0.0)) date 03/26/19 16:32:36*
%MOMM*%
%LPD*%
G01*
G04 APERTURE LIST*
G04 #@! TA.AperFunction,ComponentPad*
%ADD10C,1.200000*%
G04 #@! TD*
G04 #@! TA.AperFunction,ComponentPad*
%ADD11R,1.200000X1.200000*%
G04 #@! TD*
G04 #@! TA.AperFunction,ComponentPad*
%ADD12R,1.600000X1.600000*%
G04 #@! TD*
G04 #@! TA.AperFunction,ComponentPad*
%ADD13C,1.600000*%
G04 #@! TD*
G04 #@! TA.AperFunction,ComponentPad*
%ADD14O,1.600000X1.600000*%
G04 #@! TD*
G04 #@! TA.AperFunction,ComponentPad*
%ADD15R,2.600000X2.600000*%
G04 #@! TD*
G04 #@! TA.AperFunction,ComponentPad*
%ADD16C,2.600000*%
G04 #@! TD*
G04 #@! TA.AperFunction,Conductor*
%ADD17C,0.254000*%
G04 #@! TD*
G04 APERTURE END LIST*
D10*
G04 #@! TO.P,C1,2*
G04 #@! TO.N,Net-(C1-Pad2)*
X83590000Y-97790000D03*
D11*
G04 #@! TO.P,C1,1*
G04 #@! TO.N,Net-(C1-Pad1)*
X85090000Y-97790000D03*
G04 #@! TD*
G04 #@! TO.P,C2,1*
G04 #@! TO.N,Net-(C2-Pad1)*
X63730000Y-100330000D03*
D10*
G04 #@! TO.P,C2,2*
G04 #@! TO.N,Net-(C2-Pad2)*
X62230000Y-100330000D03*
G04 #@! TD*
D12*
G04 #@! TO.P,C3,1*
G04 #@! TO.N,Net-(C2-Pad1)*
X73660000Y-100330000D03*
D13*
G04 #@! TO.P,C3,2*
G04 #@! TO.N,Net-(C3-Pad2)*
X73660000Y-97830000D03*
G04 #@! TD*
D11*
G04 #@! TO.P,C4,1*
G04 #@! TO.N,Net-(C1-Pad2)*
X80240000Y-97790000D03*
D10*
G04 #@! TO.P,C4,2*
G04 #@! TO.N,Net-(C4-Pad2)*
X78740000Y-97790000D03*
G04 #@! TD*
G04 #@! TO.P,C5,2*
G04 #@! TO.N,Net-(C1-Pad2)*
X91440000Y-101370000D03*
D11*
G04 #@! TO.P,C5,1*
G04 #@! TO.N,Net-(C5-Pad1)*
X91440000Y-102870000D03*
G04 #@! TD*
D12*
G04 #@! TO.P,C6,1*
G04 #@! TO.N,Net-(C6-Pad1)*
X101600000Y-69850000D03*
D13*
G04 #@! TO.P,C6,2*
G04 #@! TO.N,Net-(C6-Pad2)*
X103600000Y-69850000D03*
G04 #@! TD*
G04 #@! TO.P,C7,2*
G04 #@! TO.N,Net-(C6-Pad1)*
X96520000Y-69120000D03*
D12*
G04 #@! TO.P,C7,1*
G04 #@! TO.N,Net-(C10-Pad1)*
X96520000Y-71120000D03*
G04 #@! TD*
D13*
G04 #@! TO.P,C8,2*
G04 #@! TO.N,Net-(C8-Pad2)*
X100870000Y-63500000D03*
D12*
G04 #@! TO.P,C8,1*
G04 #@! TO.N,Net-(C6-Pad2)*
X102870000Y-63500000D03*
G04 #@! TD*
G04 #@! TO.P,C9,1*
G04 #@! TO.N,Net-(C8-Pad2)*
X96520000Y-63500000D03*
D13*
G04 #@! TO.P,C9,2*
G04 #@! TO.N,Net-(C9-Pad2)*
X94520000Y-63500000D03*
G04 #@! TD*
D12*
G04 #@! TO.P,C10,1*
G04 #@! TO.N,Net-(C10-Pad1)*
X100330000Y-80010000D03*
D13*
G04 #@! TO.P,C10,2*
G04 #@! TO.N,Net-(C10-Pad2)*
X102330000Y-80010000D03*
G04 #@! TD*
D11*
G04 #@! TO.P,C11,1*
G04 #@! TO.N,Net-(C11-Pad1)*
X133350000Y-86360000D03*
D10*
G04 #@! TO.P,C11,2*
G04 #@! TO.N,Net-(C11-Pad2)*
X133350000Y-84860000D03*
G04 #@! TD*
D13*
G04 #@! TO.P,C12,2*
G04 #@! TO.N,Net-(C12-Pad2)*
X124460000Y-99060000D03*
D12*
G04 #@! TO.P,C12,1*
G04 #@! TO.N,Net-(C11-Pad1)*
X124460000Y-96560000D03*
G04 #@! TD*
D13*
G04 #@! TO.P,C13,2*
G04 #@! TO.N,GND*
X83090000Y-76200000D03*
D12*
G04 #@! TO.P,C13,1*
G04 #@! TO.N,Net-(C13-Pad1)*
X85090000Y-76200000D03*
G04 #@! TD*
D13*
G04 #@! TO.P,C14,1*
G04 #@! TO.N,Net-(C14-Pad1)*
X114300000Y-96520000D03*
G04 #@! TO.P,C14,2*
G04 #@! TO.N,Net-(C14-Pad2)*
X111800000Y-96520000D03*
G04 #@! TD*
D14*
G04 #@! TO.P,R1,2*
G04 #@! TO.N,Net-(C5-Pad1)*
X86360000Y-102870000D03*
D13*
G04 #@! TO.P,R1,1*
G04 #@! TO.N,Net-(C1-Pad1)*
X78740000Y-102870000D03*
G04 #@! TD*
D14*
G04 #@! TO.P,R2,2*
G04 #@! TO.N,Net-(C3-Pad2)*
X76200000Y-81280000D03*
D13*
G04 #@! TO.P,R2,1*
G04 #@! TO.N,GND*
X83820000Y-81280000D03*
G04 #@! TD*
G04 #@! TO.P,R3,1*
G04 #@! TO.N,Net-(R3-Pad1)*
X66040000Y-81280000D03*
D14*
G04 #@! TO.P,R3,2*
G04 #@! TO.N,Net-(R3-Pad2)*
X73660000Y-81280000D03*
G04 #@! TD*
G04 #@! TO.P,R4,2*
G04 #@! TO.N,Net-(R4-Pad2)*
X62230000Y-88900000D03*
D13*
G04 #@! TO.P,R4,1*
G04 #@! TO.N,Net-(C2-Pad2)*
X62230000Y-96520000D03*
G04 #@! TD*
G04 #@! TO.P,R5,1*
G04 #@! TO.N,Net-(C2-Pad1)*
X67310000Y-104140000D03*
D14*
G04 #@! TO.P,R5,2*
G04 #@! TO.N,Net-(C4-Pad2)*
X67310000Y-96520000D03*
G04 #@! TD*
D13*
G04 #@! TO.P,R6,1*
G04 #@! TO.N,Net-(C1-Pad2)*
X90170000Y-97790000D03*
D14*
G04 #@! TO.P,R6,2*
G04 #@! TO.N,GND*
X97790000Y-97790000D03*
G04 #@! TD*
D13*
G04 #@! TO.P,R7,1*
G04 #@! TO.N,Net-(C10-Pad1)*
X96520000Y-76200000D03*
D14*
G04 #@! TO.P,R7,2*
G04 #@! TO.N,Net-(C13-Pad1)*
X88900000Y-76200000D03*
G04 #@! TD*
G04 #@! TO.P,R8,2*
G04 #@! TO.N,Net-(C12-Pad2)*
X119380000Y-81280000D03*
D13*
G04 #@! TO.P,R8,1*
G04 #@! TO.N,GND*
X111760000Y-81280000D03*
G04 #@! TD*
D14*
G04 #@! TO.P,R9,2*
G04 #@! TO.N,Net-(C1-Pad1)*
X80010000Y-107950000D03*
D13*
G04 #@! TO.P,R9,1*
G04 #@! TO.N,Net-(C13-Pad1)*
X87630000Y-107950000D03*
G04 #@! TD*
G04 #@! TO.P,R10,1*
G04 #@! TO.N,Net-(C9-Pad2)*
X88900000Y-64770000D03*
D14*
G04 #@! TO.P,R10,2*
G04 #@! TO.N,Net-(C13-Pad1)*
X88900000Y-72390000D03*
G04 #@! TD*
G04 #@! TO.P,R11,2*
G04 #@! TO.N,Net-(C14-Pad1)*
X121920000Y-81280000D03*
D13*
G04 #@! TO.P,R11,1*
G04 #@! TO.N,Net-(C11-Pad2)*
X129540000Y-81280000D03*
G04 #@! TD*
D14*
G04 #@! TO.P,R12,2*
G04 #@! TO.N,GND*
X106680000Y-81280000D03*
D13*
G04 #@! TO.P,R12,1*
G04 #@! TO.N,Net-(C10-Pad2)*
X106680000Y-73660000D03*
G04 #@! TD*
G04 #@! TO.P,R13,1*
G04 #@! TO.N,Net-(C14-Pad1)*
X118110000Y-96520000D03*
D14*
G04 #@! TO.P,R13,2*
G04 #@! TO.N,Net-(C14-Pad2)*
X118110000Y-104140000D03*
G04 #@! TD*
D13*
G04 #@! TO.P,R14,1*
G04 #@! TO.N,Net-(R14-Pad1)*
X128270000Y-85090000D03*
D14*
G04 #@! TO.P,R14,2*
G04 #@! TO.N,Net-(C11-Pad1)*
X128270000Y-92710000D03*
G04 #@! TD*
G04 #@! TO.P,R15,2*
G04 #@! TO.N,Net-(R15-Pad2)*
X137160000Y-88900000D03*
D13*
G04 #@! TO.P,R15,1*
G04 #@! TO.N,Net-(C14-Pad2)*
X137160000Y-96520000D03*
G04 #@! TD*
G04 #@! TO.P,R16,1*
G04 #@! TO.N,Net-(R15-Pad2)*
X132080000Y-77470000D03*
D14*
G04 #@! TO.P,R16,2*
G04 #@! TO.N,GND*
X124460000Y-77470000D03*
G04 #@! TD*
G04 #@! TO.P,U1,8*
G04 #@! TO.N,Net-(R3-Pad2)*
X73660000Y-85090000D03*
G04 #@! TO.P,U1,4*
G04 #@! TO.N,-9V*
X66040000Y-92710000D03*
G04 #@! TO.P,U1,7*
G04 #@! TO.N,+9V*
X73660000Y-87630000D03*
G04 #@! TO.P,U1,3*
G04 #@! TO.N,Net-(J1-Pad1)*
X66040000Y-90170000D03*
G04 #@! TO.P,U1,6*
G04 #@! TO.N,Net-(R4-Pad2)*
X73660000Y-90170000D03*
G04 #@! TO.P,U1,2*
G04 #@! TO.N,Net-(J1-Pad2)*
X66040000Y-87630000D03*
G04 #@! TO.P,U1,5*
G04 #@! TO.N,GND*
X73660000Y-92710000D03*
D12*
G04 #@! TO.P,U1,1*
G04 #@! TO.N,Net-(R3-Pad1)*
X66040000Y-85090000D03*
G04 #@! TD*
G04 #@! TO.P,U2,1*
G04 #@! TO.N,Net-(U2-Pad1)*
X86360000Y-85090000D03*
D14*
G04 #@! TO.P,U2,5*
G04 #@! TO.N,Net-(U2-Pad5)*
X93980000Y-92710000D03*
G04 #@! TO.P,U2,2*
G04 #@! TO.N,Net-(C5-Pad1)*
X86360000Y-87630000D03*
G04 #@! TO.P,U2,6*
G04 #@! TO.N,Net-(C1-Pad1)*
X93980000Y-90170000D03*
G04 #@! TO.P,U2,3*
G04 #@! TO.N,GND*
X86360000Y-90170000D03*
G04 #@! TO.P,U2,7*
G04 #@! TO.N,+9V*
X93980000Y-87630000D03*
G04 #@! TO.P,U2,4*
G04 #@! TO.N,-9V*
X86360000Y-92710000D03*
G04 #@! TO.P,U2,8*
G04 #@! TO.N,Net-(U2-Pad8)*
X93980000Y-85090000D03*
G04 #@! TD*
G04 #@! TO.P,U3,8*
G04 #@! TO.N,Net-(U3-Pad8)*
X83820000Y-85090000D03*
G04 #@! TO.P,U3,4*
G04 #@! TO.N,-9V*
X76200000Y-92710000D03*
G04 #@! TO.P,U3,7*
G04 #@! TO.N,+9V*
X83820000Y-87630000D03*
G04 #@! TO.P,U3,3*
G04 #@! TO.N,Net-(C3-Pad2)*
X76200000Y-90170000D03*
G04 #@! TO.P,U3,6*
G04 #@! TO.N,Net-(C4-Pad2)*
X83820000Y-90170000D03*
G04 #@! TO.P,U3,2*
X76200000Y-87630000D03*
G04 #@! TO.P,U3,5*
G04 #@! TO.N,Net-(U3-Pad5)*
X83820000Y-92710000D03*
D12*
G04 #@! TO.P,U3,1*
G04 #@! TO.N,Net-(U3-Pad1)*
X76200000Y-85090000D03*
G04 #@! TD*
D14*
G04 #@! TO.P,U4,8*
G04 #@! TO.N,Net-(U4-Pad8)*
X104140000Y-85090000D03*
G04 #@! TO.P,U4,4*
G04 #@! TO.N,-9V*
X96520000Y-92710000D03*
G04 #@! TO.P,U4,7*
G04 #@! TO.N,+9V*
X104140000Y-87630000D03*
G04 #@! TO.P,U4,3*
G04 #@! TO.N,GND*
X96520000Y-90170000D03*
G04 #@! TO.P,U4,6*
G04 #@! TO.N,Net-(C10-Pad1)*
X104140000Y-90170000D03*
G04 #@! TO.P,U4,2*
G04 #@! TO.N,Net-(C9-Pad2)*
X96520000Y-87630000D03*
G04 #@! TO.P,U4,5*
G04 #@! TO.N,Net-(U4-Pad5)*
X104140000Y-92710000D03*
D12*
G04 #@! TO.P,U4,1*
G04 #@! TO.N,Net-(U4-Pad1)*
X96520000Y-85090000D03*
G04 #@! TD*
G04 #@! TO.P,U5,1*
G04 #@! TO.N,Net-(U5-Pad1)*
X106680000Y-85090000D03*
D14*
G04 #@! TO.P,U5,5*
G04 #@! TO.N,Net-(U5-Pad5)*
X114300000Y-92710000D03*
G04 #@! TO.P,U5,2*
G04 #@! TO.N,Net-(C14-Pad2)*
X106680000Y-87630000D03*
G04 #@! TO.P,U5,6*
G04 #@! TO.N,Net-(C14-Pad1)*
X114300000Y-90170000D03*
G04 #@! TO.P,U5,3*
G04 #@! TO.N,Net-(C10-Pad2)*
X106680000Y-90170000D03*
G04 #@! TO.P,U5,7*
G04 #@! TO.N,+9V*
X114300000Y-87630000D03*
G04 #@! TO.P,U5,4*
G04 #@! TO.N,-9V*
X106680000Y-92710000D03*
G04 #@! TO.P,U5,8*
G04 #@! TO.N,Net-(U5-Pad8)*
X114300000Y-85090000D03*
G04 #@! TD*
D12*
G04 #@! TO.P,U6,1*
G04 #@! TO.N,Net-(U6-Pad1)*
X116840000Y-85090000D03*
D14*
G04 #@! TO.P,U6,5*
G04 #@! TO.N,Net-(U6-Pad5)*
X124460000Y-92710000D03*
G04 #@! TO.P,U6,2*
G04 #@! TO.N,Net-(R14-Pad1)*
X116840000Y-87630000D03*
G04 #@! TO.P,U6,6*
X124460000Y-90170000D03*
G04 #@! TO.P,U6,3*
G04 #@! TO.N,Net-(C12-Pad2)*
X116840000Y-90170000D03*
G04 #@! TO.P,U6,7*
G04 #@! TO.N,+9V*
X124460000Y-87630000D03*
G04 #@! TO.P,U6,4*
G04 #@! TO.N,-9V*
X116840000Y-92710000D03*
G04 #@! TO.P,U6,8*
G04 #@! TO.N,Net-(U6-Pad8)*
X124460000Y-85090000D03*
G04 #@! TD*
D15*
G04 #@! TO.P,J1,1*
G04 #@! TO.N,Net-(J1-Pad1)*
X56642000Y-82296000D03*
D16*
G04 #@! TO.P,J1,2*
G04 #@! TO.N,Net-(J1-Pad2)*
X60142000Y-82296000D03*
G04 #@! TD*
D15*
G04 #@! TO.P,J2,1*
G04 #@! TO.N,Net-(C11-Pad2)*
X125166000Y-71120000D03*
D16*
G04 #@! TO.P,J2,2*
G04 #@! TO.N,+9V*
X121666000Y-71120000D03*
G04 #@! TO.P,J2,3*
G04 #@! TO.N,-9V*
X118166000Y-71120000D03*
G04 #@! TD*
D17*
G04 #@! TO.N,Net-(C3-Pad2)*
X76999999Y-82079999D02*
X76200000Y-81280000D01*
X77381001Y-82461001D02*
X76999999Y-82079999D01*
X77381001Y-88988999D02*
X77381001Y-82461001D01*
X76200000Y-90170000D02*
X77381001Y-88988999D01*
G04 #@! TO.N,Net-(C4-Pad2)*
X77470000Y-96520000D02*
X78740000Y-97790000D01*
X67310000Y-96520000D02*
X77470000Y-96520000D01*
G04 #@! TO.N,Net-(C5-Pad1)*
X87159999Y-88429999D02*
X86360000Y-87630000D01*
X87541001Y-88811001D02*
X87159999Y-88429999D01*
X87541001Y-95993197D02*
X87541001Y-88811001D01*
X86360000Y-97174198D02*
X87541001Y-95993197D01*
X86360000Y-102870000D02*
X86360000Y-97174198D01*
G04 #@! TO.N,Net-(C10-Pad2)*
X103129999Y-80809999D02*
X102330000Y-80010000D01*
X105498999Y-83178999D02*
X103129999Y-80809999D01*
X105498999Y-88988999D02*
X105498999Y-83178999D01*
X106680000Y-90170000D02*
X105498999Y-88988999D01*
G04 #@! TO.N,Net-(C12-Pad2)*
X119380000Y-87630000D02*
X119380000Y-81280000D01*
X116840000Y-90170000D02*
X119380000Y-87630000D01*
G04 #@! TO.N,GND*
X85560001Y-89370001D02*
X86360000Y-90170000D01*
X85178999Y-88988999D02*
X85560001Y-89370001D01*
X85178999Y-82638999D02*
X85178999Y-88988999D01*
X83820000Y-81280000D02*
X85178999Y-82638999D01*
G04 #@! TO.N,Net-(C13-Pad1)*
X88900000Y-106680000D02*
X87630000Y-107950000D01*
X88900000Y-76200000D02*
X88900000Y-106680000D01*
G04 #@! TO.N,-9V*
X107861001Y-91528999D02*
X107479999Y-91910001D01*
X115658999Y-91528999D02*
X107861001Y-91528999D01*
X116840000Y-92710000D02*
X115658999Y-91528999D01*
X97319999Y-91910001D02*
X96520000Y-92710000D01*
X97701001Y-91528999D02*
X97319999Y-91910001D01*
X105498999Y-91528999D02*
X97701001Y-91528999D01*
X106680000Y-92710000D02*
X105498999Y-91528999D01*
X75400001Y-93509999D02*
X76200000Y-92710000D01*
X74930000Y-93980000D02*
X75400001Y-93509999D01*
X67310000Y-93980000D02*
X74930000Y-93980000D01*
X66040000Y-92710000D02*
X67310000Y-93980000D01*
X85560001Y-93509999D02*
X86360000Y-92710000D01*
X85178999Y-93891001D02*
X85560001Y-93509999D01*
X77381001Y-93891001D02*
X85178999Y-93891001D01*
X76200000Y-92710000D02*
X77381001Y-93891001D01*
X107479999Y-91910001D02*
X106680000Y-92710000D01*
X112941001Y-86448999D02*
X107479999Y-91910001D01*
X114866881Y-86448999D02*
X112941001Y-86448999D01*
X115658999Y-87241117D02*
X114866881Y-86448999D01*
X115658999Y-73627001D02*
X115658999Y-87241117D01*
X118166000Y-71120000D02*
X115658999Y-73627001D01*
G04 #@! TO.N,+9V*
X115099999Y-88429999D02*
X114300000Y-87630000D01*
X115481001Y-88811001D02*
X115099999Y-88429999D01*
X115481001Y-90558883D02*
X115481001Y-88811001D01*
X116273119Y-91351001D02*
X115481001Y-90558883D01*
X120738999Y-91351001D02*
X116273119Y-91351001D01*
X124460000Y-87630000D02*
X120738999Y-91351001D01*
X95161001Y-86448999D02*
X94779999Y-86830001D01*
X104140000Y-87630000D02*
X102958999Y-86448999D01*
X102958999Y-86448999D02*
X95161001Y-86448999D01*
G04 #@! TO.N,Net-(J1-Pad1)*
X65240001Y-89370001D02*
X66040000Y-90170000D01*
X59847001Y-83977001D02*
X65240001Y-89370001D01*
X56769001Y-83977001D02*
X59847001Y-83977001D01*
X56642000Y-83850000D02*
X56769001Y-83977001D01*
X56642000Y-82296000D02*
X56642000Y-83850000D01*
G04 #@! TO.N,Net-(J1-Pad2)*
X65476000Y-87630000D02*
X66040000Y-87630000D01*
X60142000Y-82296000D02*
X65476000Y-87630000D01*
G04 #@! TD*
G04 #@! TO.N,GND*
G36*
X151944000Y-113844000D02*
X51256000Y-113844000D01*
X51256000Y-107950000D01*
X78805863Y-107950000D01*
X78897522Y-108410803D01*
X79158547Y-108801453D01*
X79549197Y-109062478D01*
X79893682Y-109131000D01*
X80126318Y-109131000D01*
X80470803Y-109062478D01*
X80861453Y-108801453D01*
X81122478Y-108410803D01*
X81214137Y-107950000D01*
X81167410Y-107715085D01*
X86449000Y-107715085D01*
X86449000Y-108184915D01*
X86628797Y-108618983D01*
X86961017Y-108951203D01*
X87395085Y-109131000D01*
X87864915Y-109131000D01*
X88298983Y-108951203D01*
X88631203Y-108618983D01*
X88811000Y-108184915D01*
X88811000Y-107715085D01*
X88744319Y-107554102D01*
X89223835Y-107074586D01*
X89266247Y-107046247D01*
X89294586Y-107003835D01*
X89294588Y-107003833D01*
X89378525Y-106878212D01*
X89386619Y-106837522D01*
X89408000Y-106730032D01*
X89408000Y-106730029D01*
X89417951Y-106680001D01*
X89408000Y-106629973D01*
X89408000Y-104140000D01*
X116905863Y-104140000D01*
X116997522Y-104600803D01*
X117258547Y-104991453D01*
X117649197Y-105252478D01*
X117993682Y-105321000D01*
X118226318Y-105321000D01*
X118570803Y-105252478D01*
X118961453Y-104991453D01*
X119222478Y-104600803D01*
X119314137Y-104140000D01*
X119222478Y-103679197D01*
X118961453Y-103288547D01*
X118570803Y-103027522D01*
X118226318Y-102959000D01*
X117993682Y-102959000D01*
X117649197Y-103027522D01*
X117258547Y-103288547D01*
X116997522Y-103679197D01*
X116905863Y-104140000D01*
X89408000Y-104140000D01*
X89408000Y-102270000D01*
X90451536Y-102270000D01*
X90451536Y-103470000D01*
X90481106Y-103618659D01*
X90565314Y-103744686D01*
X90691341Y-103828894D01*
X90840000Y-103858464D01*
X92040000Y-103858464D01*
X92188659Y-103828894D01*
X92314686Y-103744686D01*
X92398894Y-103618659D01*
X92428464Y-103470000D01*
X92428464Y-102270000D01*
X92398894Y-102121341D01*
X92314686Y-101995314D01*
X92247153Y-101950191D01*
X92271652Y-101925692D01*
X92421000Y-101565133D01*
X92421000Y-101174867D01*
X92271652Y-100814308D01*
X91995692Y-100538348D01*
X91635133Y-100389000D01*
X91244867Y-100389000D01*
X90884308Y-100538348D01*
X90608348Y-100814308D01*
X90459000Y-101174867D01*
X90459000Y-101565133D01*
X90608348Y-101925692D01*
X90632847Y-101950191D01*
X90565314Y-101995314D01*
X90481106Y-102121341D01*
X90451536Y-102270000D01*
X89408000Y-102270000D01*
X89408000Y-98698186D01*
X89501017Y-98791203D01*
X89935085Y-98971000D01*
X90404915Y-98971000D01*
X90838983Y-98791203D01*
X91171203Y-98458983D01*
X91303728Y-98139039D01*
X96398096Y-98139039D01*
X96558959Y-98527423D01*
X96934866Y-98942389D01*
X97440959Y-99181914D01*
X97663000Y-99060629D01*
X97663000Y-97917000D01*
X97917000Y-97917000D01*
X97917000Y-99060629D01*
X98139041Y-99181914D01*
X98645134Y-98942389D01*
X98751396Y-98825085D01*
X123279000Y-98825085D01*
X123279000Y-99294915D01*
X123458797Y-99728983D01*
X123791017Y-100061203D01*
X124225085Y-100241000D01*
X124694915Y-100241000D01*
X125128983Y-100061203D01*
X125461203Y-99728983D01*
X125641000Y-99294915D01*
X125641000Y-98825085D01*
X125461203Y-98391017D01*
X125128983Y-98058797D01*
X124694915Y-97879000D01*
X124225085Y-97879000D01*
X123791017Y-98058797D01*
X123458797Y-98391017D01*
X123279000Y-98825085D01*
X98751396Y-98825085D01*
X99021041Y-98527423D01*
X99181904Y-98139039D01*
X99059915Y-97917000D01*
X97917000Y-97917000D01*
X97663000Y-97917000D01*
X96520085Y-97917000D01*
X96398096Y-98139039D01*
X91303728Y-98139039D01*
X91351000Y-98024915D01*
X91351000Y-97555085D01*
X91303729Y-97440961D01*
X96398096Y-97440961D01*
X96520085Y-97663000D01*
X97663000Y-97663000D01*
X97663000Y-96519371D01*
X97917000Y-96519371D01*
X97917000Y-97663000D01*
X99059915Y-97663000D01*
X99181904Y-97440961D01*
X99021041Y-97052577D01*
X98645134Y-96637611D01*
X98139041Y-96398086D01*
X97917000Y-96519371D01*
X97663000Y-96519371D01*
X97440959Y-96398086D01*
X96934866Y-96637611D01*
X96558959Y-97052577D01*
X96398096Y-97440961D01*
X91303729Y-97440961D01*
X91171203Y-97121017D01*
X90838983Y-96788797D01*
X90404915Y-96609000D01*
X89935085Y-96609000D01*
X89501017Y-96788797D01*
X89408000Y-96881814D01*
X89408000Y-96285085D01*
X110619000Y-96285085D01*
X110619000Y-96754915D01*
X110798797Y-97188983D01*
X111131017Y-97521203D01*
X111565085Y-97701000D01*
X112034915Y-97701000D01*
X112468983Y-97521203D01*
X112801203Y-97188983D01*
X112981000Y-96754915D01*
X112981000Y-96285085D01*
X113119000Y-96285085D01*
X113119000Y-96754915D01*
X113298797Y-97188983D01*
X113631017Y-97521203D01*
X114065085Y-97701000D01*
X114534915Y-97701000D01*
X114968983Y-97521203D01*
X115301203Y-97188983D01*
X115481000Y-96754915D01*
X115481000Y-96285085D01*
X116929000Y-96285085D01*
X116929000Y-96754915D01*
X117108797Y-97188983D01*
X117441017Y-97521203D01*
X117875085Y-97701000D01*
X118344915Y-97701000D01*
X118778983Y-97521203D01*
X119111203Y-97188983D01*
X119291000Y-96754915D01*
X119291000Y-96285085D01*
X119111203Y-95851017D01*
X119020186Y-95760000D01*
X123271536Y-95760000D01*
X123271536Y-97360000D01*
X123301106Y-97508659D01*
X123385314Y-97634686D01*
X123511341Y-97718894D01*
X123660000Y-97748464D01*
X125260000Y-97748464D01*
X125408659Y-97718894D01*
X125534686Y-97634686D01*
X125618894Y-97508659D01*
X125648464Y-97360000D01*
X125648464Y-96285085D01*
X135979000Y-96285085D01*
X135979000Y-96754915D01*
X136158797Y-97188983D01*
X136491017Y-97521203D01*
X136925085Y-97701000D01*
X137394915Y-97701000D01*
X137828983Y-97521203D01*
X138161203Y-97188983D01*
X138341000Y-96754915D01*
X138341000Y-96285085D01*
X138161203Y-95851017D01*
X137828983Y-95518797D01*
X137394915Y-95339000D01*
X136925085Y-95339000D01*
X136491017Y-95518797D01*
X136158797Y-95851017D01*
X135979000Y-96285085D01*
X125648464Y-96285085D01*
X125648464Y-95760000D01*
X125618894Y-95611341D01*
X125534686Y-95485314D01*
X125408659Y-95401106D01*
X125260000Y-95371536D01*
X123660000Y-95371536D01*
X123511341Y-95401106D01*
X123385314Y-95485314D01*
X123301106Y-95611341D01*
X123271536Y-95760000D01*
X119020186Y-95760000D01*
X118778983Y-95518797D01*
X118344915Y-95339000D01*
X117875085Y-95339000D01*
X117441017Y-95518797D01*
X117108797Y-95851017D01*
X116929000Y-96285085D01*
X115481000Y-96285085D01*
X115301203Y-95851017D01*
X114968983Y-95518797D01*
X114534915Y-95339000D01*
X114065085Y-95339000D01*
X113631017Y-95518797D01*
X113298797Y-95851017D01*
X113119000Y-96285085D01*
X112981000Y-96285085D01*
X112801203Y-95851017D01*
X112468983Y-95518797D01*
X112034915Y-95339000D01*
X111565085Y-95339000D01*
X111131017Y-95518797D01*
X110798797Y-95851017D01*
X110619000Y-96285085D01*
X89408000Y-96285085D01*
X89408000Y-92710000D01*
X92775863Y-92710000D01*
X92867522Y-93170803D01*
X93128547Y-93561453D01*
X93519197Y-93822478D01*
X93863682Y-93891000D01*
X94096318Y-93891000D01*
X94440803Y-93822478D01*
X94831453Y-93561453D01*
X95092478Y-93170803D01*
X95184137Y-92710000D01*
X95092478Y-92249197D01*
X94831453Y-91858547D01*
X94440803Y-91597522D01*
X94096318Y-91529000D01*
X93863682Y-91529000D01*
X93519197Y-91597522D01*
X93128547Y-91858547D01*
X92867522Y-92249197D01*
X92775863Y-92710000D01*
X89408000Y-92710000D01*
X89408000Y-87630000D01*
X92775863Y-87630000D01*
X92867522Y-88090803D01*
X93128547Y-88481453D01*
X93519197Y-88742478D01*
X93863682Y-88811000D01*
X94096318Y-88811000D01*
X94440803Y-88742478D01*
X94831453Y-88481453D01*
X95092478Y-88090803D01*
X95184137Y-87630000D01*
X95103535Y-87224787D01*
X95103831Y-87224589D01*
X95371422Y-86956999D01*
X95549309Y-86956999D01*
X95407522Y-87169197D01*
X95315863Y-87630000D01*
X95407522Y-88090803D01*
X95668547Y-88481453D01*
X96059197Y-88742478D01*
X96392998Y-88808875D01*
X96392998Y-88899370D01*
X96170959Y-88778086D01*
X95664866Y-89017611D01*
X95288959Y-89432577D01*
X95128096Y-89820961D01*
X95250084Y-90042998D01*
X95158875Y-90042998D01*
X95092478Y-89709197D01*
X94831453Y-89318547D01*
X94440803Y-89057522D01*
X94096318Y-88989000D01*
X93863682Y-88989000D01*
X93519197Y-89057522D01*
X93128547Y-89318547D01*
X92867522Y-89709197D01*
X92775863Y-90170000D01*
X92867522Y-90630803D01*
X93128547Y-91021453D01*
X93519197Y-91282478D01*
X93863682Y-91351000D01*
X94096318Y-91351000D01*
X94440803Y-91282478D01*
X94831453Y-91021453D01*
X95092478Y-90630803D01*
X95158875Y-90297002D01*
X95250084Y-90297002D01*
X95128096Y-90519039D01*
X95288959Y-90907423D01*
X95664866Y-91322389D01*
X96170959Y-91561914D01*
X96392998Y-91440630D01*
X96392998Y-91531125D01*
X96059197Y-91597522D01*
X95668547Y-91858547D01*
X95407522Y-92249197D01*
X95315863Y-92710000D01*
X95407522Y-93170803D01*
X95668547Y-93561453D01*
X96059197Y-93822478D01*
X96403682Y-93891000D01*
X96636318Y-93891000D01*
X96980803Y-93822478D01*
X97371453Y-93561453D01*
X97632478Y-93170803D01*
X97724137Y-92710000D01*
X97643552Y-92304868D01*
X97714586Y-92233834D01*
X97911422Y-92036999D01*
X103169309Y-92036999D01*
X103027522Y-92249197D01*
X102935863Y-92710000D01*
X103027522Y-93170803D01*
X103288547Y-93561453D01*
X103679197Y-93822478D01*
X104023682Y-93891000D01*
X104256318Y-93891000D01*
X104600803Y-93822478D01*
X104991453Y-93561453D01*
X105252478Y-93170803D01*
X105344137Y-92710000D01*
X105252478Y-92249197D01*
X105110691Y-92036999D01*
X105288579Y-92036999D01*
X105556448Y-92304869D01*
X105475863Y-92710000D01*
X105567522Y-93170803D01*
X105828547Y-93561453D01*
X106219197Y-93822478D01*
X106563682Y-93891000D01*
X106796318Y-93891000D01*
X107140803Y-93822478D01*
X107531453Y-93561453D01*
X107792478Y-93170803D01*
X107884137Y-92710000D01*
X107803552Y-92304868D01*
X107874586Y-92233834D01*
X108071422Y-92036999D01*
X113329309Y-92036999D01*
X113187522Y-92249197D01*
X113095863Y-92710000D01*
X113187522Y-93170803D01*
X113448547Y-93561453D01*
X113839197Y-93822478D01*
X114183682Y-93891000D01*
X114416318Y-93891000D01*
X114760803Y-93822478D01*
X115151453Y-93561453D01*
X115412478Y-93170803D01*
X115504137Y-92710000D01*
X115412478Y-92249197D01*
X115270691Y-92036999D01*
X115448579Y-92036999D01*
X115716448Y-92304869D01*
X115635863Y-92710000D01*
X115727522Y-93170803D01*
X115988547Y-93561453D01*
X116379197Y-93822478D01*
X116723682Y-93891000D01*
X116956318Y-93891000D01*
X117300803Y-93822478D01*
X117691453Y-93561453D01*
X117952478Y-93170803D01*
X118044137Y-92710000D01*
X123255863Y-92710000D01*
X123347522Y-93170803D01*
X123608547Y-93561453D01*
X123999197Y-93822478D01*
X124343682Y-93891000D01*
X124576318Y-93891000D01*
X124920803Y-93822478D01*
X125311453Y-93561453D01*
X125572478Y-93170803D01*
X125664137Y-92710000D01*
X127065863Y-92710000D01*
X127157522Y-93170803D01*
X127418547Y-93561453D01*
X127809197Y-93822478D01*
X128153682Y-93891000D01*
X128386318Y-93891000D01*
X128730803Y-93822478D01*
X129121453Y-93561453D01*
X129382478Y-93170803D01*
X129474137Y-92710000D01*
X129382478Y-92249197D01*
X129121453Y-91858547D01*
X128730803Y-91597522D01*
X128386318Y-91529000D01*
X128153682Y-91529000D01*
X127809197Y-91597522D01*
X127418547Y-91858547D01*
X127157522Y-92249197D01*
X127065863Y-92710000D01*
X125664137Y-92710000D01*
X125572478Y-92249197D01*
X125311453Y-91858547D01*
X124920803Y-91597522D01*
X124576318Y-91529000D01*
X124343682Y-91529000D01*
X123999197Y-91597522D01*
X123608547Y-91858547D01*
X123347522Y-92249197D01*
X123255863Y-92710000D01*
X118044137Y-92710000D01*
X117952478Y-92249197D01*
X117691756Y-91859001D01*
X120688971Y-91859001D01*
X120738999Y-91868952D01*
X120789027Y-91859001D01*
X120789031Y-91859001D01*
X120937211Y-91829526D01*
X121105246Y-91717248D01*
X121133587Y-91674833D01*
X122638420Y-90170000D01*
X123255863Y-90170000D01*
X123347522Y-90630803D01*
X123608547Y-91021453D01*
X123999197Y-91282478D01*
X124343682Y-91351000D01*
X124576318Y-91351000D01*
X124920803Y-91282478D01*
X125311453Y-91021453D01*
X125572478Y-90630803D01*
X125664137Y-90170000D01*
X125572478Y-89709197D01*
X125311453Y-89318547D01*
X124920803Y-89057522D01*
X124576318Y-88989000D01*
X124343682Y-88989000D01*
X123999197Y-89057522D01*
X123608547Y-89318547D01*
X123347522Y-89709197D01*
X123255863Y-90170000D01*
X122638420Y-90170000D01*
X123908420Y-88900000D01*
X135955863Y-88900000D01*
X136047522Y-89360803D01*
X136308547Y-89751453D01*
X136699197Y-90012478D01*
X137043682Y-90081000D01*
X137276318Y-90081000D01*
X137620803Y-90012478D01*
X138011453Y-89751453D01*
X138272478Y-89360803D01*
X138364137Y-88900000D01*
X138272478Y-88439197D01*
X138011453Y-88048547D01*
X137620803Y-87787522D01*
X137276318Y-87719000D01*
X137043682Y-87719000D01*
X136699197Y-87787522D01*
X136308547Y-88048547D01*
X136047522Y-88439197D01*
X135955863Y-88900000D01*
X123908420Y-88900000D01*
X124054869Y-88753552D01*
X124343682Y-88811000D01*
X124576318Y-88811000D01*
X124920803Y-88742478D01*
X125311453Y-88481453D01*
X125572478Y-88090803D01*
X125664137Y-87630000D01*
X125572478Y-87169197D01*
X125311453Y-86778547D01*
X124920803Y-86517522D01*
X124576318Y-86449000D01*
X124343682Y-86449000D01*
X123999197Y-86517522D01*
X123608547Y-86778547D01*
X123347522Y-87169197D01*
X123255863Y-87630000D01*
X123336448Y-88035131D01*
X120528579Y-90843001D01*
X117810691Y-90843001D01*
X117952478Y-90630803D01*
X118044137Y-90170000D01*
X117963552Y-89764868D01*
X119703833Y-88024587D01*
X119746247Y-87996247D01*
X119858525Y-87828212D01*
X119888000Y-87680032D01*
X119888000Y-87680029D01*
X119897951Y-87630001D01*
X119888000Y-87579973D01*
X119888000Y-85090000D01*
X123255863Y-85090000D01*
X123347522Y-85550803D01*
X123608547Y-85941453D01*
X123999197Y-86202478D01*
X124343682Y-86271000D01*
X124576318Y-86271000D01*
X124920803Y-86202478D01*
X125311453Y-85941453D01*
X125572478Y-85550803D01*
X125664137Y-85090000D01*
X125617410Y-84855085D01*
X127089000Y-84855085D01*
X127089000Y-85324915D01*
X127268797Y-85758983D01*
X127601017Y-86091203D01*
X128035085Y-86271000D01*
X128504915Y-86271000D01*
X128938983Y-86091203D01*
X129270186Y-85760000D01*
X132361536Y-85760000D01*
X132361536Y-86960000D01*
X132391106Y-87108659D01*
X132475314Y-87234686D01*
X132601341Y-87318894D01*
X132750000Y-87348464D01*
X133950000Y-87348464D01*
X134098659Y-87318894D01*
X134224686Y-87234686D01*
X134308894Y-87108659D01*
X134338464Y-86960000D01*
X134338464Y-85760000D01*
X134308894Y-85611341D01*
X134224686Y-85485314D01*
X134157153Y-85440191D01*
X134181652Y-85415692D01*
X134331000Y-85055133D01*
X134331000Y-84664867D01*
X134181652Y-84304308D01*
X133905692Y-84028348D01*
X133545133Y-83879000D01*
X133154867Y-83879000D01*
X132794308Y-84028348D01*
X132518348Y-84304308D01*
X132369000Y-84664867D01*
X132369000Y-85055133D01*
X132518348Y-85415692D01*
X132542847Y-85440191D01*
X132475314Y-85485314D01*
X132391106Y-85611341D01*
X132361536Y-85760000D01*
X129270186Y-85760000D01*
X129271203Y-85758983D01*
X129451000Y-85324915D01*
X129451000Y-84855085D01*
X129271203Y-84421017D01*
X128938983Y-84088797D01*
X128504915Y-83909000D01*
X128035085Y-83909000D01*
X127601017Y-84088797D01*
X127268797Y-84421017D01*
X127089000Y-84855085D01*
X125617410Y-84855085D01*
X125572478Y-84629197D01*
X125311453Y-84238547D01*
X124920803Y-83977522D01*
X124576318Y-83909000D01*
X124343682Y-83909000D01*
X123999197Y-83977522D01*
X123608547Y-84238547D01*
X123347522Y-84629197D01*
X123255863Y-85090000D01*
X119888000Y-85090000D01*
X119888000Y-82360942D01*
X120231453Y-82131453D01*
X120492478Y-81740803D01*
X120584137Y-81280000D01*
X120715863Y-81280000D01*
X120807522Y-81740803D01*
X121068547Y-82131453D01*
X121459197Y-82392478D01*
X121803682Y-82461000D01*
X122036318Y-82461000D01*
X122380803Y-82392478D01*
X122771453Y-82131453D01*
X123032478Y-81740803D01*
X123124137Y-81280000D01*
X123077410Y-81045085D01*
X128359000Y-81045085D01*
X128359000Y-81514915D01*
X128538797Y-81948983D01*
X128871017Y-82281203D01*
X129305085Y-82461000D01*
X129774915Y-82461000D01*
X130208983Y-82281203D01*
X130541203Y-81948983D01*
X130721000Y-81514915D01*
X130721000Y-81045085D01*
X130541203Y-80611017D01*
X130208983Y-80278797D01*
X129774915Y-80099000D01*
X129305085Y-80099000D01*
X128871017Y-80278797D01*
X128538797Y-80611017D01*
X128359000Y-81045085D01*
X123077410Y-81045085D01*
X123032478Y-80819197D01*
X122771453Y-80428547D01*
X122380803Y-80167522D01*
X122036318Y-80099000D01*
X121803682Y-80099000D01*
X121459197Y-80167522D01*
X121068547Y-80428547D01*
X120807522Y-80819197D01*
X120715863Y-81280000D01*
X120584137Y-81280000D01*
X120492478Y-80819197D01*
X120231453Y-80428547D01*
X119840803Y-80167522D01*
X119496318Y-80099000D01*
X119263682Y-80099000D01*
X118919197Y-80167522D01*
X118528547Y-80428547D01*
X118267522Y-80819197D01*
X118175863Y-81280000D01*
X118267522Y-81740803D01*
X118528547Y-82131453D01*
X118872001Y-82360942D01*
X118872000Y-87419580D01*
X117245132Y-89046448D01*
X116956318Y-88989000D01*
X116723682Y-88989000D01*
X116379197Y-89057522D01*
X115989001Y-89318244D01*
X115989001Y-88861028D01*
X115998952Y-88811000D01*
X115989001Y-88760972D01*
X115989001Y-88760969D01*
X115959526Y-88612789D01*
X115947246Y-88594411D01*
X115875589Y-88487168D01*
X115875587Y-88487166D01*
X115847248Y-88444754D01*
X115804836Y-88416415D01*
X115423831Y-88035411D01*
X115423552Y-88035132D01*
X115485335Y-87724525D01*
X115500214Y-87727484D01*
X115658999Y-87759069D01*
X115661440Y-87758584D01*
X115727522Y-88090803D01*
X115988547Y-88481453D01*
X116379197Y-88742478D01*
X116723682Y-88811000D01*
X116956318Y-88811000D01*
X117300803Y-88742478D01*
X117691453Y-88481453D01*
X117952478Y-88090803D01*
X118044137Y-87630000D01*
X117952478Y-87169197D01*
X117691453Y-86778547D01*
X117300803Y-86517522D01*
X116956318Y-86449000D01*
X116723682Y-86449000D01*
X116379197Y-86517522D01*
X116166999Y-86659309D01*
X116166999Y-86278464D01*
X117640000Y-86278464D01*
X117788659Y-86248894D01*
X117914686Y-86164686D01*
X117998894Y-86038659D01*
X118028464Y-85890000D01*
X118028464Y-84290000D01*
X117998894Y-84141341D01*
X117914686Y-84015314D01*
X117788659Y-83931106D01*
X117640000Y-83901536D01*
X116166999Y-83901536D01*
X116166999Y-77819039D01*
X123068096Y-77819039D01*
X123228959Y-78207423D01*
X123604866Y-78622389D01*
X124110959Y-78861914D01*
X124333000Y-78740629D01*
X124333000Y-77597000D01*
X124587000Y-77597000D01*
X124587000Y-78740629D01*
X124809041Y-78861914D01*
X125315134Y-78622389D01*
X125691041Y-78207423D01*
X125851904Y-77819039D01*
X125729915Y-77597000D01*
X124587000Y-77597000D01*
X124333000Y-77597000D01*
X123190085Y-77597000D01*
X123068096Y-77819039D01*
X116166999Y-77819039D01*
X116166999Y-77120961D01*
X123068096Y-77120961D01*
X123190085Y-77343000D01*
X124333000Y-77343000D01*
X124333000Y-76199371D01*
X124587000Y-76199371D01*
X124587000Y-77343000D01*
X125729915Y-77343000D01*
X125789203Y-77235085D01*
X130899000Y-77235085D01*
X130899000Y-77704915D01*
X131078797Y-78138983D01*
X131411017Y-78471203D01*
X131845085Y-78651000D01*
X132314915Y-78651000D01*
X132748983Y-78471203D01*
X133081203Y-78138983D01*
X133261000Y-77704915D01*
X133261000Y-77235085D01*
X133081203Y-76801017D01*
X132748983Y-76468797D01*
X132314915Y-76289000D01*
X131845085Y-76289000D01*
X131411017Y-76468797D01*
X131078797Y-76801017D01*
X130899000Y-77235085D01*
X125789203Y-77235085D01*
X125851904Y-77120961D01*
X125691041Y-76732577D01*
X125315134Y-76317611D01*
X124809041Y-76078086D01*
X124587000Y-76199371D01*
X124333000Y-76199371D01*
X124110959Y-76078086D01*
X123604866Y-76317611D01*
X123228959Y-76732577D01*
X123068096Y-77120961D01*
X116166999Y-77120961D01*
X116166999Y-73837421D01*
X117387418Y-72617002D01*
X117831628Y-72801000D01*
X118500372Y-72801000D01*
X119118210Y-72545083D01*
X119591083Y-72072210D01*
X119847000Y-71454372D01*
X119847000Y-70785628D01*
X119985000Y-70785628D01*
X119985000Y-71454372D01*
X120240917Y-72072210D01*
X120713790Y-72545083D01*
X121331628Y-72801000D01*
X122000372Y-72801000D01*
X122618210Y-72545083D01*
X123091083Y-72072210D01*
X123347000Y-71454372D01*
X123347000Y-70785628D01*
X123091083Y-70167790D01*
X122743293Y-69820000D01*
X123477536Y-69820000D01*
X123477536Y-72420000D01*
X123507106Y-72568659D01*
X123591314Y-72694686D01*
X123717341Y-72778894D01*
X123866000Y-72808464D01*
X126466000Y-72808464D01*
X126614659Y-72778894D01*
X126740686Y-72694686D01*
X126824894Y-72568659D01*
X126854464Y-72420000D01*
X126854464Y-69820000D01*
X126824894Y-69671341D01*
X126740686Y-69545314D01*
X126614659Y-69461106D01*
X126466000Y-69431536D01*
X123866000Y-69431536D01*
X123717341Y-69461106D01*
X123591314Y-69545314D01*
X123507106Y-69671341D01*
X123477536Y-69820000D01*
X122743293Y-69820000D01*
X122618210Y-69694917D01*
X122000372Y-69439000D01*
X121331628Y-69439000D01*
X120713790Y-69694917D01*
X120240917Y-70167790D01*
X119985000Y-70785628D01*
X119847000Y-70785628D01*
X119591083Y-70167790D01*
X119118210Y-69694917D01*
X118500372Y-69439000D01*
X117831628Y-69439000D01*
X117213790Y-69694917D01*
X116740917Y-70167790D01*
X116485000Y-70785628D01*
X116485000Y-71454372D01*
X116668998Y-71898582D01*
X115335167Y-73232413D01*
X115292752Y-73260754D01*
X115180474Y-73428790D01*
X115150999Y-73576970D01*
X115150999Y-73576973D01*
X115141048Y-73627001D01*
X115150999Y-73677029D01*
X115151000Y-84238244D01*
X114760803Y-83977522D01*
X114416318Y-83909000D01*
X114183682Y-83909000D01*
X113839197Y-83977522D01*
X113448547Y-84238547D01*
X113187522Y-84629197D01*
X113095863Y-85090000D01*
X113187522Y-85550803D01*
X113448244Y-85940999D01*
X112991028Y-85940999D01*
X112941000Y-85931048D01*
X112890972Y-85940999D01*
X112890969Y-85940999D01*
X112742789Y-85970474D01*
X112617168Y-86054411D01*
X112617166Y-86054413D01*
X112574754Y-86082752D01*
X112546415Y-86125164D01*
X107537171Y-91134409D01*
X107537168Y-91134411D01*
X107537166Y-91134413D01*
X107494754Y-91162752D01*
X107466415Y-91205164D01*
X107279530Y-91392050D01*
X107085132Y-91586448D01*
X106796318Y-91529000D01*
X106563682Y-91529000D01*
X106274869Y-91586448D01*
X105893587Y-91205167D01*
X105865246Y-91162752D01*
X105697211Y-91050474D01*
X105549031Y-91020999D01*
X105549027Y-91020999D01*
X105498999Y-91011048D01*
X105448971Y-91020999D01*
X104991756Y-91020999D01*
X105252478Y-90630803D01*
X105344137Y-90170000D01*
X105252478Y-89709197D01*
X104991453Y-89318547D01*
X104600803Y-89057522D01*
X104256318Y-88989000D01*
X104023682Y-88989000D01*
X103679197Y-89057522D01*
X103288547Y-89318547D01*
X103027522Y-89709197D01*
X102935863Y-90170000D01*
X103027522Y-90630803D01*
X103288244Y-91020999D01*
X97751028Y-91020999D01*
X97701000Y-91011048D01*
X97650972Y-91020999D01*
X97650969Y-91020999D01*
X97647537Y-91021682D01*
X97751041Y-90907423D01*
X97911904Y-90519039D01*
X97789915Y-90297000D01*
X96647000Y-90297000D01*
X96647000Y-90317000D01*
X96393000Y-90317000D01*
X96393000Y-90297000D01*
X96373000Y-90297000D01*
X96373000Y-90043000D01*
X96393000Y-90043000D01*
X96393000Y-90023000D01*
X96647000Y-90023000D01*
X96647000Y-90043000D01*
X97789915Y-90043000D01*
X97911904Y-89820961D01*
X97751041Y-89432577D01*
X97375134Y-89017611D01*
X96869041Y-88778086D01*
X96647002Y-88899370D01*
X96647002Y-88808875D01*
X96980803Y-88742478D01*
X97371453Y-88481453D01*
X97632478Y-88090803D01*
X97724137Y-87630000D01*
X97632478Y-87169197D01*
X97490691Y-86956999D01*
X102748579Y-86956999D01*
X103016448Y-87224869D01*
X102935863Y-87630000D01*
X103027522Y-88090803D01*
X103288547Y-88481453D01*
X103679197Y-88742478D01*
X104023682Y-88811000D01*
X104256318Y-88811000D01*
X104600803Y-88742478D01*
X104990999Y-88481756D01*
X104990999Y-88938971D01*
X104981048Y-88988999D01*
X104990999Y-89039027D01*
X104990999Y-89039030D01*
X105020474Y-89187210D01*
X105132752Y-89355246D01*
X105175167Y-89383587D01*
X105556448Y-89764869D01*
X105475863Y-90170000D01*
X105567522Y-90630803D01*
X105828547Y-91021453D01*
X106219197Y-91282478D01*
X106563682Y-91351000D01*
X106796318Y-91351000D01*
X107140803Y-91282478D01*
X107531453Y-91021453D01*
X107792478Y-90630803D01*
X107884137Y-90170000D01*
X107792478Y-89709197D01*
X107531453Y-89318547D01*
X107140803Y-89057522D01*
X106796318Y-88989000D01*
X106563682Y-88989000D01*
X106274869Y-89046448D01*
X106006999Y-88778579D01*
X106006999Y-88600691D01*
X106219197Y-88742478D01*
X106563682Y-88811000D01*
X106796318Y-88811000D01*
X107140803Y-88742478D01*
X107531453Y-88481453D01*
X107792478Y-88090803D01*
X107884137Y-87630000D01*
X107792478Y-87169197D01*
X107531453Y-86778547D01*
X107140803Y-86517522D01*
X106796318Y-86449000D01*
X106563682Y-86449000D01*
X106219197Y-86517522D01*
X106006999Y-86659309D01*
X106006999Y-86278464D01*
X107480000Y-86278464D01*
X107628659Y-86248894D01*
X107754686Y-86164686D01*
X107838894Y-86038659D01*
X107868464Y-85890000D01*
X107868464Y-84290000D01*
X107838894Y-84141341D01*
X107754686Y-84015314D01*
X107628659Y-83931106D01*
X107480000Y-83901536D01*
X106006999Y-83901536D01*
X106006999Y-83229027D01*
X106016950Y-83178999D01*
X106006999Y-83128971D01*
X106006999Y-83128967D01*
X105977524Y-82980787D01*
X105949954Y-82939526D01*
X105893587Y-82855166D01*
X105893585Y-82855164D01*
X105865246Y-82812752D01*
X105822834Y-82784413D01*
X104667462Y-81629041D01*
X105288086Y-81629041D01*
X105527611Y-82135134D01*
X105942577Y-82511041D01*
X106330961Y-82671904D01*
X106553000Y-82549915D01*
X106553000Y-81407000D01*
X106807000Y-81407000D01*
X106807000Y-82549915D01*
X107029039Y-82671904D01*
X107417423Y-82511041D01*
X107663920Y-82287745D01*
X110931861Y-82287745D01*
X111005995Y-82533864D01*
X111543223Y-82726965D01*
X112113454Y-82699778D01*
X112514005Y-82533864D01*
X112588139Y-82287745D01*
X111760000Y-81459605D01*
X110931861Y-82287745D01*
X107663920Y-82287745D01*
X107832389Y-82135134D01*
X108071914Y-81629041D01*
X107950629Y-81407000D01*
X106807000Y-81407000D01*
X106553000Y-81407000D01*
X105409371Y-81407000D01*
X105288086Y-81629041D01*
X104667462Y-81629041D01*
X103969380Y-80930959D01*
X105288086Y-80930959D01*
X105409371Y-81153000D01*
X106553000Y-81153000D01*
X106553000Y-80010085D01*
X106807000Y-80010085D01*
X106807000Y-81153000D01*
X107950629Y-81153000D01*
X107999667Y-81063223D01*
X110313035Y-81063223D01*
X110340222Y-81633454D01*
X110506136Y-82034005D01*
X110752255Y-82108139D01*
X111580395Y-81280000D01*
X111939605Y-81280000D01*
X112767745Y-82108139D01*
X113013864Y-82034005D01*
X113206965Y-81496777D01*
X113179778Y-80926546D01*
X113013864Y-80525995D01*
X112767745Y-80451861D01*
X111939605Y-81280000D01*
X111580395Y-81280000D01*
X110752255Y-80451861D01*
X110506136Y-80525995D01*
X110313035Y-81063223D01*
X107999667Y-81063223D01*
X108071914Y-80930959D01*
X107832389Y-80424866D01*
X107663921Y-80272255D01*
X110931861Y-80272255D01*
X111760000Y-81100395D01*
X112588139Y-80272255D01*
X112514005Y-80026136D01*
X111976777Y-79833035D01*
X111406546Y-79860222D01*
X111005995Y-80026136D01*
X110931861Y-80272255D01*
X107663921Y-80272255D01*
X107417423Y-80048959D01*
X107029039Y-79888096D01*
X106807000Y-80010085D01*
X106553000Y-80010085D01*
X106330961Y-79888096D01*
X105942577Y-80048959D01*
X105527611Y-80424866D01*
X105288086Y-80930959D01*
X103969380Y-80930959D01*
X103453831Y-80415411D01*
X103444318Y-80405898D01*
X103511000Y-80244915D01*
X103511000Y-79775085D01*
X103331203Y-79341017D01*
X102998983Y-79008797D01*
X102564915Y-78829000D01*
X102095085Y-78829000D01*
X101661017Y-79008797D01*
X101508733Y-79161081D01*
X101488894Y-79061341D01*
X101404686Y-78935314D01*
X101278659Y-78851106D01*
X101130000Y-78821536D01*
X99530000Y-78821536D01*
X99381341Y-78851106D01*
X99255314Y-78935314D01*
X99171106Y-79061341D01*
X99141536Y-79210000D01*
X99141536Y-80810000D01*
X99171106Y-80958659D01*
X99255314Y-81084686D01*
X99381341Y-81168894D01*
X99530000Y-81198464D01*
X101130000Y-81198464D01*
X101278659Y-81168894D01*
X101404686Y-81084686D01*
X101488894Y-80958659D01*
X101508733Y-80858919D01*
X101661017Y-81011203D01*
X102095085Y-81191000D01*
X102564915Y-81191000D01*
X102725898Y-81124318D01*
X102735411Y-81133831D01*
X104991000Y-83389421D01*
X104991000Y-84238244D01*
X104600803Y-83977522D01*
X104256318Y-83909000D01*
X104023682Y-83909000D01*
X103679197Y-83977522D01*
X103288547Y-84238547D01*
X103027522Y-84629197D01*
X102935863Y-85090000D01*
X103027522Y-85550803D01*
X103288547Y-85941453D01*
X103679197Y-86202478D01*
X104023682Y-86271000D01*
X104256318Y-86271000D01*
X104600803Y-86202478D01*
X104991000Y-85941756D01*
X104990999Y-86778244D01*
X104600803Y-86517522D01*
X104256318Y-86449000D01*
X104023682Y-86449000D01*
X103734869Y-86506448D01*
X103353587Y-86125167D01*
X103325246Y-86082752D01*
X103157211Y-85970474D01*
X103009031Y-85940999D01*
X103009027Y-85940999D01*
X102958999Y-85931048D01*
X102908971Y-85940999D01*
X97698320Y-85940999D01*
X97708464Y-85890000D01*
X97708464Y-84290000D01*
X97678894Y-84141341D01*
X97594686Y-84015314D01*
X97468659Y-83931106D01*
X97320000Y-83901536D01*
X95720000Y-83901536D01*
X95571341Y-83931106D01*
X95445314Y-84015314D01*
X95361106Y-84141341D01*
X95331536Y-84290000D01*
X95331536Y-85890000D01*
X95341680Y-85940999D01*
X95211028Y-85940999D01*
X95161000Y-85931048D01*
X95110972Y-85940999D01*
X95110969Y-85940999D01*
X94962789Y-85970474D01*
X94837168Y-86054411D01*
X94837166Y-86054413D01*
X94794754Y-86082752D01*
X94766415Y-86125164D01*
X94385411Y-86506169D01*
X94385213Y-86506465D01*
X94096318Y-86449000D01*
X93863682Y-86449000D01*
X93519197Y-86517522D01*
X93128547Y-86778547D01*
X92867522Y-87169197D01*
X92775863Y-87630000D01*
X89408000Y-87630000D01*
X89408000Y-85090000D01*
X92775863Y-85090000D01*
X92867522Y-85550803D01*
X93128547Y-85941453D01*
X93519197Y-86202478D01*
X93863682Y-86271000D01*
X94096318Y-86271000D01*
X94440803Y-86202478D01*
X94831453Y-85941453D01*
X95092478Y-85550803D01*
X95184137Y-85090000D01*
X95092478Y-84629197D01*
X94831453Y-84238547D01*
X94440803Y-83977522D01*
X94096318Y-83909000D01*
X93863682Y-83909000D01*
X93519197Y-83977522D01*
X93128547Y-84238547D01*
X92867522Y-84629197D01*
X92775863Y-85090000D01*
X89408000Y-85090000D01*
X89408000Y-77280942D01*
X89751453Y-77051453D01*
X90012478Y-76660803D01*
X90104137Y-76200000D01*
X90057410Y-75965085D01*
X95339000Y-75965085D01*
X95339000Y-76434915D01*
X95518797Y-76868983D01*
X95851017Y-77201203D01*
X96285085Y-77381000D01*
X96754915Y-77381000D01*
X97188983Y-77201203D01*
X97521203Y-76868983D01*
X97701000Y-76434915D01*
X97701000Y-75965085D01*
X97521203Y-75531017D01*
X97188983Y-75198797D01*
X96754915Y-75019000D01*
X96285085Y-75019000D01*
X95851017Y-75198797D01*
X95518797Y-75531017D01*
X95339000Y-75965085D01*
X90057410Y-75965085D01*
X90012478Y-75739197D01*
X89751453Y-75348547D01*
X89360803Y-75087522D01*
X89016318Y-75019000D01*
X88783682Y-75019000D01*
X88439197Y-75087522D01*
X88048547Y-75348547D01*
X87787522Y-75739197D01*
X87695863Y-76200000D01*
X87787522Y-76660803D01*
X88048547Y-77051453D01*
X88392000Y-77280942D01*
X88392001Y-106469578D01*
X88025898Y-106835681D01*
X87864915Y-106769000D01*
X87395085Y-106769000D01*
X86961017Y-106948797D01*
X86628797Y-107281017D01*
X86449000Y-107715085D01*
X81167410Y-107715085D01*
X81122478Y-107489197D01*
X80861453Y-107098547D01*
X80470803Y-106837522D01*
X80126318Y-106769000D01*
X79893682Y-106769000D01*
X79549197Y-106837522D01*
X79158547Y-107098547D01*
X78897522Y-107489197D01*
X78805863Y-107950000D01*
X51256000Y-107950000D01*
X51256000Y-103905085D01*
X66129000Y-103905085D01*
X66129000Y-104374915D01*
X66308797Y-104808983D01*
X66641017Y-105141203D01*
X67075085Y-105321000D01*
X67544915Y-105321000D01*
X67978983Y-105141203D01*
X68311203Y-104808983D01*
X68491000Y-104374915D01*
X68491000Y-103905085D01*
X68311203Y-103471017D01*
X67978983Y-103138797D01*
X67544915Y-102959000D01*
X67075085Y-102959000D01*
X66641017Y-103138797D01*
X66308797Y-103471017D01*
X66129000Y-103905085D01*
X51256000Y-103905085D01*
X51256000Y-102635085D01*
X77559000Y-102635085D01*
X77559000Y-103104915D01*
X77738797Y-103538983D01*
X78071017Y-103871203D01*
X78505085Y-104051000D01*
X78974915Y-104051000D01*
X79408983Y-103871203D01*
X79741203Y-103538983D01*
X79921000Y-103104915D01*
X79921000Y-102635085D01*
X79741203Y-102201017D01*
X79408983Y-101868797D01*
X78974915Y-101689000D01*
X78505085Y-101689000D01*
X78071017Y-101868797D01*
X77738797Y-102201017D01*
X77559000Y-102635085D01*
X51256000Y-102635085D01*
X51256000Y-100134867D01*
X61249000Y-100134867D01*
X61249000Y-100525133D01*
X61398348Y-100885692D01*
X61674308Y-101161652D01*
X62034867Y-101311000D01*
X62425133Y-101311000D01*
X62785692Y-101161652D01*
X62810191Y-101137153D01*
X62855314Y-101204686D01*
X62981341Y-101288894D01*
X63130000Y-101318464D01*
X64330000Y-101318464D01*
X64478659Y-101288894D01*
X64604686Y-101204686D01*
X64688894Y-101078659D01*
X64718464Y-100930000D01*
X64718464Y-99730000D01*
X64688894Y-99581341D01*
X64654590Y-99530000D01*
X72471536Y-99530000D01*
X72471536Y-101130000D01*
X72501106Y-101278659D01*
X72585314Y-101404686D01*
X72711341Y-101488894D01*
X72860000Y-101518464D01*
X74460000Y-101518464D01*
X74608659Y-101488894D01*
X74734686Y-101404686D01*
X74818894Y-101278659D01*
X74848464Y-101130000D01*
X74848464Y-99530000D01*
X74818894Y-99381341D01*
X74734686Y-99255314D01*
X74608659Y-99171106D01*
X74460000Y-99141536D01*
X72860000Y-99141536D01*
X72711341Y-99171106D01*
X72585314Y-99255314D01*
X72501106Y-99381341D01*
X72471536Y-99530000D01*
X64654590Y-99530000D01*
X64604686Y-99455314D01*
X64478659Y-99371106D01*
X64330000Y-99341536D01*
X63130000Y-99341536D01*
X62981341Y-99371106D01*
X62855314Y-99455314D01*
X62810191Y-99522847D01*
X62785692Y-99498348D01*
X62425133Y-99349000D01*
X62034867Y-99349000D01*
X61674308Y-99498348D01*
X61398348Y-99774308D01*
X61249000Y-100134867D01*
X51256000Y-100134867D01*
X51256000Y-96285085D01*
X61049000Y-96285085D01*
X61049000Y-96754915D01*
X61228797Y-97188983D01*
X61561017Y-97521203D01*
X61995085Y-97701000D01*
X62464915Y-97701000D01*
X62898983Y-97521203D01*
X63231203Y-97188983D01*
X63411000Y-96754915D01*
X63411000Y-96520000D01*
X66105863Y-96520000D01*
X66197522Y-96980803D01*
X66458547Y-97371453D01*
X66849197Y-97632478D01*
X67193682Y-97701000D01*
X67426318Y-97701000D01*
X67770803Y-97632478D01*
X68161453Y-97371453D01*
X68390942Y-97028000D01*
X72791814Y-97028000D01*
X72658797Y-97161017D01*
X72479000Y-97595085D01*
X72479000Y-98064915D01*
X72658797Y-98498983D01*
X72991017Y-98831203D01*
X73425085Y-99011000D01*
X73894915Y-99011000D01*
X74328983Y-98831203D01*
X74661203Y-98498983D01*
X74841000Y-98064915D01*
X74841000Y-97595085D01*
X74661203Y-97161017D01*
X74528186Y-97028000D01*
X77259580Y-97028000D01*
X77778755Y-97547175D01*
X77759000Y-97594867D01*
X77759000Y-97985133D01*
X77908348Y-98345692D01*
X78184308Y-98621652D01*
X78544867Y-98771000D01*
X78935133Y-98771000D01*
X79295692Y-98621652D01*
X79320191Y-98597153D01*
X79365314Y-98664686D01*
X79491341Y-98748894D01*
X79640000Y-98778464D01*
X80840000Y-98778464D01*
X80988659Y-98748894D01*
X81114686Y-98664686D01*
X81198894Y-98538659D01*
X81228464Y-98390000D01*
X81228464Y-97190000D01*
X81198894Y-97041341D01*
X81114686Y-96915314D01*
X80988659Y-96831106D01*
X80840000Y-96801536D01*
X79640000Y-96801536D01*
X79491341Y-96831106D01*
X79365314Y-96915314D01*
X79320191Y-96982847D01*
X79295692Y-96958348D01*
X78935133Y-96809000D01*
X78544867Y-96809000D01*
X78497175Y-96828755D01*
X77864588Y-96196168D01*
X77836247Y-96153753D01*
X77668212Y-96041475D01*
X77520032Y-96012000D01*
X77520028Y-96012000D01*
X77470000Y-96002049D01*
X77419972Y-96012000D01*
X68390942Y-96012000D01*
X68161453Y-95668547D01*
X67770803Y-95407522D01*
X67426318Y-95339000D01*
X67193682Y-95339000D01*
X66849197Y-95407522D01*
X66458547Y-95668547D01*
X66197522Y-96059197D01*
X66105863Y-96520000D01*
X63411000Y-96520000D01*
X63411000Y-96285085D01*
X63231203Y-95851017D01*
X62898983Y-95518797D01*
X62464915Y-95339000D01*
X61995085Y-95339000D01*
X61561017Y-95518797D01*
X61228797Y-95851017D01*
X61049000Y-96285085D01*
X51256000Y-96285085D01*
X51256000Y-92710000D01*
X64835863Y-92710000D01*
X64927522Y-93170803D01*
X65188547Y-93561453D01*
X65579197Y-93822478D01*
X65923682Y-93891000D01*
X66156318Y-93891000D01*
X66445131Y-93833552D01*
X66915414Y-94303835D01*
X66943753Y-94346247D01*
X66986165Y-94374586D01*
X66986167Y-94374588D01*
X67037597Y-94408952D01*
X67111788Y-94458525D01*
X67259968Y-94488000D01*
X67259971Y-94488000D01*
X67309999Y-94497951D01*
X67360027Y-94488000D01*
X74879972Y-94488000D01*
X74930000Y-94497951D01*
X74980028Y-94488000D01*
X74980032Y-94488000D01*
X75128212Y-94458525D01*
X75296247Y-94346247D01*
X75324588Y-94303833D01*
X75794589Y-93833832D01*
X75794591Y-93833829D01*
X75794868Y-93833552D01*
X76083682Y-93891000D01*
X76316318Y-93891000D01*
X76605131Y-93833552D01*
X76986415Y-94214836D01*
X77014754Y-94257248D01*
X77057166Y-94285587D01*
X77057168Y-94285589D01*
X77122287Y-94329099D01*
X77182789Y-94369526D01*
X77330969Y-94399001D01*
X77330973Y-94399001D01*
X77381001Y-94408952D01*
X77431029Y-94399001D01*
X85128971Y-94399001D01*
X85178999Y-94408952D01*
X85229027Y-94399001D01*
X85229031Y-94399001D01*
X85377211Y-94369526D01*
X85545246Y-94257248D01*
X85573587Y-94214834D01*
X85954589Y-93833832D01*
X85954591Y-93833829D01*
X85954868Y-93833552D01*
X86243682Y-93891000D01*
X86476318Y-93891000D01*
X86820803Y-93822478D01*
X87033001Y-93680691D01*
X87033001Y-95782776D01*
X86036166Y-96779612D01*
X85993754Y-96807951D01*
X85965415Y-96850363D01*
X85965412Y-96850366D01*
X85935186Y-96895603D01*
X85838659Y-96831106D01*
X85690000Y-96801536D01*
X84490000Y-96801536D01*
X84341341Y-96831106D01*
X84215314Y-96915314D01*
X84170191Y-96982847D01*
X84145692Y-96958348D01*
X83785133Y-96809000D01*
X83394867Y-96809000D01*
X83034308Y-96958348D01*
X82758348Y-97234308D01*
X82609000Y-97594867D01*
X82609000Y-97985133D01*
X82758348Y-98345692D01*
X83034308Y-98621652D01*
X83394867Y-98771000D01*
X83785133Y-98771000D01*
X84145692Y-98621652D01*
X84170191Y-98597153D01*
X84215314Y-98664686D01*
X84341341Y-98748894D01*
X84490000Y-98778464D01*
X85690000Y-98778464D01*
X85838659Y-98748894D01*
X85852001Y-98739979D01*
X85852000Y-101789058D01*
X85508547Y-102018547D01*
X85247522Y-102409197D01*
X85155863Y-102870000D01*
X85247522Y-103330803D01*
X85508547Y-103721453D01*
X85899197Y-103982478D01*
X86243682Y-104051000D01*
X86476318Y-104051000D01*
X86820803Y-103982478D01*
X87211453Y-103721453D01*
X87472478Y-103330803D01*
X87564137Y-102870000D01*
X87472478Y-102409197D01*
X87211453Y-102018547D01*
X86868000Y-101789058D01*
X86868000Y-97384618D01*
X87864837Y-96387782D01*
X87907248Y-96359444D01*
X87935587Y-96317032D01*
X87935589Y-96317030D01*
X87979099Y-96251911D01*
X88019526Y-96191409D01*
X88049001Y-96043229D01*
X88049001Y-96043225D01*
X88058952Y-95993197D01*
X88049001Y-95943169D01*
X88049001Y-88861028D01*
X88058952Y-88811000D01*
X88049001Y-88760972D01*
X88049001Y-88760969D01*
X88019526Y-88612789D01*
X88007246Y-88594411D01*
X87935589Y-88487168D01*
X87935587Y-88487166D01*
X87907248Y-88444754D01*
X87864836Y-88416415D01*
X87483831Y-88035411D01*
X87483552Y-88035132D01*
X87564137Y-87630000D01*
X87472478Y-87169197D01*
X87211453Y-86778547D01*
X86820803Y-86517522D01*
X86476318Y-86449000D01*
X86243682Y-86449000D01*
X85899197Y-86517522D01*
X85508547Y-86778547D01*
X85247522Y-87169197D01*
X85155863Y-87630000D01*
X85247522Y-88090803D01*
X85508547Y-88481453D01*
X85899197Y-88742478D01*
X86232998Y-88808875D01*
X86232998Y-88899370D01*
X86010959Y-88778086D01*
X85504866Y-89017611D01*
X85128959Y-89432577D01*
X84968096Y-89820961D01*
X85090084Y-90042998D01*
X84998875Y-90042998D01*
X84932478Y-89709197D01*
X84671453Y-89318547D01*
X84280803Y-89057522D01*
X83936318Y-88989000D01*
X83703682Y-88989000D01*
X83359197Y-89057522D01*
X82968547Y-89318547D01*
X82707522Y-89709197D01*
X82615863Y-90170000D01*
X82707522Y-90630803D01*
X82968547Y-91021453D01*
X83359197Y-91282478D01*
X83703682Y-91351000D01*
X83936318Y-91351000D01*
X84280803Y-91282478D01*
X84671453Y-91021453D01*
X84932478Y-90630803D01*
X84998875Y-90297002D01*
X85090084Y-90297002D01*
X84968096Y-90519039D01*
X85128959Y-90907423D01*
X85504866Y-91322389D01*
X86010959Y-91561914D01*
X86232998Y-91440630D01*
X86232998Y-91531125D01*
X85899197Y-91597522D01*
X85508547Y-91858547D01*
X85247522Y-92249197D01*
X85155863Y-92710000D01*
X85236448Y-93115132D01*
X85236171Y-93115409D01*
X85236168Y-93115411D01*
X84968579Y-93383001D01*
X84790691Y-93383001D01*
X84932478Y-93170803D01*
X85024137Y-92710000D01*
X84932478Y-92249197D01*
X84671453Y-91858547D01*
X84280803Y-91597522D01*
X83936318Y-91529000D01*
X83703682Y-91529000D01*
X83359197Y-91597522D01*
X82968547Y-91858547D01*
X82707522Y-92249197D01*
X82615863Y-92710000D01*
X82707522Y-93170803D01*
X82849309Y-93383001D01*
X77591422Y-93383001D01*
X77323552Y-93115131D01*
X77404137Y-92710000D01*
X77312478Y-92249197D01*
X77051453Y-91858547D01*
X76660803Y-91597522D01*
X76316318Y-91529000D01*
X76083682Y-91529000D01*
X75739197Y-91597522D01*
X75348547Y-91858547D01*
X75087522Y-92249197D01*
X75021125Y-92582998D01*
X74929916Y-92582998D01*
X75051904Y-92360961D01*
X74891041Y-91972577D01*
X74515134Y-91557611D01*
X74009041Y-91318086D01*
X73787002Y-91439370D01*
X73787002Y-91348875D01*
X74120803Y-91282478D01*
X74511453Y-91021453D01*
X74772478Y-90630803D01*
X74864137Y-90170000D01*
X74772478Y-89709197D01*
X74511453Y-89318547D01*
X74120803Y-89057522D01*
X73776318Y-88989000D01*
X73543682Y-88989000D01*
X73199197Y-89057522D01*
X72808547Y-89318547D01*
X72547522Y-89709197D01*
X72455863Y-90170000D01*
X72547522Y-90630803D01*
X72808547Y-91021453D01*
X73199197Y-91282478D01*
X73532998Y-91348875D01*
X73532998Y-91439370D01*
X73310959Y-91318086D01*
X72804866Y-91557611D01*
X72428959Y-91972577D01*
X72268096Y-92360961D01*
X72390085Y-92583000D01*
X73533000Y-92583000D01*
X73533000Y-92563000D01*
X73787000Y-92563000D01*
X73787000Y-92583000D01*
X73807000Y-92583000D01*
X73807000Y-92837000D01*
X73787000Y-92837000D01*
X73787000Y-92857000D01*
X73533000Y-92857000D01*
X73533000Y-92837000D01*
X72390085Y-92837000D01*
X72268096Y-93059039D01*
X72428959Y-93447423D01*
X72451223Y-93472000D01*
X67520421Y-93472000D01*
X67163552Y-93115131D01*
X67244137Y-92710000D01*
X67152478Y-92249197D01*
X66891453Y-91858547D01*
X66500803Y-91597522D01*
X66156318Y-91529000D01*
X65923682Y-91529000D01*
X65579197Y-91597522D01*
X65188547Y-91858547D01*
X64927522Y-92249197D01*
X64835863Y-92710000D01*
X51256000Y-92710000D01*
X51256000Y-88900000D01*
X61025863Y-88900000D01*
X61117522Y-89360803D01*
X61378547Y-89751453D01*
X61769197Y-90012478D01*
X62113682Y-90081000D01*
X62346318Y-90081000D01*
X62690803Y-90012478D01*
X63081453Y-89751453D01*
X63342478Y-89360803D01*
X63434137Y-88900000D01*
X63342478Y-88439197D01*
X63081453Y-88048547D01*
X62690803Y-87787522D01*
X62346318Y-87719000D01*
X62113682Y-87719000D01*
X61769197Y-87787522D01*
X61378547Y-88048547D01*
X61117522Y-88439197D01*
X61025863Y-88900000D01*
X51256000Y-88900000D01*
X51256000Y-80996000D01*
X54953536Y-80996000D01*
X54953536Y-83596000D01*
X54983106Y-83744659D01*
X55067314Y-83870686D01*
X55193341Y-83954894D01*
X55342000Y-83984464D01*
X56150795Y-83984464D01*
X56163475Y-84048211D01*
X56247412Y-84173832D01*
X56247415Y-84173835D01*
X56275754Y-84216247D01*
X56318167Y-84244587D01*
X56374412Y-84300831D01*
X56402754Y-84343248D01*
X56570789Y-84455526D01*
X56718969Y-84485001D01*
X56718973Y-84485001D01*
X56769001Y-84494952D01*
X56819029Y-84485001D01*
X59636581Y-84485001D01*
X64916168Y-89764589D01*
X64916171Y-89764591D01*
X64916448Y-89764868D01*
X64835863Y-90170000D01*
X64927522Y-90630803D01*
X65188547Y-91021453D01*
X65579197Y-91282478D01*
X65923682Y-91351000D01*
X66156318Y-91351000D01*
X66500803Y-91282478D01*
X66891453Y-91021453D01*
X67152478Y-90630803D01*
X67244137Y-90170000D01*
X67152478Y-89709197D01*
X66891453Y-89318547D01*
X66500803Y-89057522D01*
X66156318Y-88989000D01*
X65923682Y-88989000D01*
X65634868Y-89046448D01*
X65634591Y-89046171D01*
X65634589Y-89046168D01*
X60539338Y-83950918D01*
X60920582Y-83793002D01*
X64855301Y-87727722D01*
X64927522Y-88090803D01*
X65188547Y-88481453D01*
X65579197Y-88742478D01*
X65923682Y-88811000D01*
X66156318Y-88811000D01*
X66500803Y-88742478D01*
X66891453Y-88481453D01*
X67152478Y-88090803D01*
X67244137Y-87630000D01*
X72455863Y-87630000D01*
X72547522Y-88090803D01*
X72808547Y-88481453D01*
X73199197Y-88742478D01*
X73543682Y-88811000D01*
X73776318Y-88811000D01*
X74120803Y-88742478D01*
X74511453Y-88481453D01*
X74772478Y-88090803D01*
X74864137Y-87630000D01*
X74772478Y-87169197D01*
X74511453Y-86778547D01*
X74120803Y-86517522D01*
X73776318Y-86449000D01*
X73543682Y-86449000D01*
X73199197Y-86517522D01*
X72808547Y-86778547D01*
X72547522Y-87169197D01*
X72455863Y-87630000D01*
X67244137Y-87630000D01*
X67152478Y-87169197D01*
X66891453Y-86778547D01*
X66500803Y-86517522D01*
X66156318Y-86449000D01*
X65923682Y-86449000D01*
X65579197Y-86517522D01*
X65281115Y-86716695D01*
X62854420Y-84290000D01*
X64851536Y-84290000D01*
X64851536Y-85890000D01*
X64881106Y-86038659D01*
X64965314Y-86164686D01*
X65091341Y-86248894D01*
X65240000Y-86278464D01*
X66840000Y-86278464D01*
X66988659Y-86248894D01*
X67114686Y-86164686D01*
X67198894Y-86038659D01*
X67228464Y-85890000D01*
X67228464Y-85090000D01*
X72455863Y-85090000D01*
X72547522Y-85550803D01*
X72808547Y-85941453D01*
X73199197Y-86202478D01*
X73543682Y-86271000D01*
X73776318Y-86271000D01*
X74120803Y-86202478D01*
X74511453Y-85941453D01*
X74772478Y-85550803D01*
X74864137Y-85090000D01*
X74772478Y-84629197D01*
X74511453Y-84238547D01*
X74120803Y-83977522D01*
X73776318Y-83909000D01*
X73543682Y-83909000D01*
X73199197Y-83977522D01*
X72808547Y-84238547D01*
X72547522Y-84629197D01*
X72455863Y-85090000D01*
X67228464Y-85090000D01*
X67228464Y-84290000D01*
X67198894Y-84141341D01*
X67114686Y-84015314D01*
X66988659Y-83931106D01*
X66840000Y-83901536D01*
X65240000Y-83901536D01*
X65091341Y-83931106D01*
X64965314Y-84015314D01*
X64881106Y-84141341D01*
X64851536Y-84290000D01*
X62854420Y-84290000D01*
X61639002Y-83074582D01*
X61823000Y-82630372D01*
X61823000Y-81961628D01*
X61567083Y-81343790D01*
X61268378Y-81045085D01*
X64859000Y-81045085D01*
X64859000Y-81514915D01*
X65038797Y-81948983D01*
X65371017Y-82281203D01*
X65805085Y-82461000D01*
X66274915Y-82461000D01*
X66708983Y-82281203D01*
X67041203Y-81948983D01*
X67221000Y-81514915D01*
X67221000Y-81280000D01*
X72455863Y-81280000D01*
X72547522Y-81740803D01*
X72808547Y-82131453D01*
X73199197Y-82392478D01*
X73543682Y-82461000D01*
X73776318Y-82461000D01*
X74120803Y-82392478D01*
X74511453Y-82131453D01*
X74772478Y-81740803D01*
X74864137Y-81280000D01*
X74995863Y-81280000D01*
X75087522Y-81740803D01*
X75348547Y-82131453D01*
X75739197Y-82392478D01*
X76083682Y-82461000D01*
X76316318Y-82461000D01*
X76605132Y-82403552D01*
X76605411Y-82403831D01*
X76873002Y-82671423D01*
X76873002Y-83901536D01*
X75400000Y-83901536D01*
X75251341Y-83931106D01*
X75125314Y-84015314D01*
X75041106Y-84141341D01*
X75011536Y-84290000D01*
X75011536Y-85890000D01*
X75041106Y-86038659D01*
X75125314Y-86164686D01*
X75251341Y-86248894D01*
X75400000Y-86278464D01*
X76873001Y-86278464D01*
X76873001Y-86659309D01*
X76660803Y-86517522D01*
X76316318Y-86449000D01*
X76083682Y-86449000D01*
X75739197Y-86517522D01*
X75348547Y-86778547D01*
X75087522Y-87169197D01*
X74995863Y-87630000D01*
X75087522Y-88090803D01*
X75348547Y-88481453D01*
X75739197Y-88742478D01*
X76083682Y-88811000D01*
X76316318Y-88811000D01*
X76660803Y-88742478D01*
X76873001Y-88600691D01*
X76873001Y-88778578D01*
X76605131Y-89046448D01*
X76316318Y-88989000D01*
X76083682Y-88989000D01*
X75739197Y-89057522D01*
X75348547Y-89318547D01*
X75087522Y-89709197D01*
X74995863Y-90170000D01*
X75087522Y-90630803D01*
X75348547Y-91021453D01*
X75739197Y-91282478D01*
X76083682Y-91351000D01*
X76316318Y-91351000D01*
X76660803Y-91282478D01*
X77051453Y-91021453D01*
X77312478Y-90630803D01*
X77404137Y-90170000D01*
X77323552Y-89764869D01*
X77704837Y-89383584D01*
X77747248Y-89355246D01*
X77775587Y-89312834D01*
X77775589Y-89312832D01*
X77847246Y-89205589D01*
X77859526Y-89187211D01*
X77889001Y-89039031D01*
X77889001Y-89039027D01*
X77898952Y-88988999D01*
X77889001Y-88938971D01*
X77889001Y-87630000D01*
X82615863Y-87630000D01*
X82707522Y-88090803D01*
X82968547Y-88481453D01*
X83359197Y-88742478D01*
X83703682Y-88811000D01*
X83936318Y-88811000D01*
X84280803Y-88742478D01*
X84671453Y-88481453D01*
X84932478Y-88090803D01*
X85024137Y-87630000D01*
X84932478Y-87169197D01*
X84671453Y-86778547D01*
X84280803Y-86517522D01*
X83936318Y-86449000D01*
X83703682Y-86449000D01*
X83359197Y-86517522D01*
X82968547Y-86778547D01*
X82707522Y-87169197D01*
X82615863Y-87630000D01*
X77889001Y-87630000D01*
X77889001Y-85090000D01*
X82615863Y-85090000D01*
X82707522Y-85550803D01*
X82968547Y-85941453D01*
X83359197Y-86202478D01*
X83703682Y-86271000D01*
X83936318Y-86271000D01*
X84280803Y-86202478D01*
X84671453Y-85941453D01*
X84932478Y-85550803D01*
X85024137Y-85090000D01*
X84932478Y-84629197D01*
X84705833Y-84290000D01*
X85171536Y-84290000D01*
X85171536Y-85890000D01*
X85201106Y-86038659D01*
X85285314Y-86164686D01*
X85411341Y-86248894D01*
X85560000Y-86278464D01*
X87160000Y-86278464D01*
X87308659Y-86248894D01*
X87434686Y-86164686D01*
X87518894Y-86038659D01*
X87548464Y-85890000D01*
X87548464Y-84290000D01*
X87518894Y-84141341D01*
X87434686Y-84015314D01*
X87308659Y-83931106D01*
X87160000Y-83901536D01*
X85560000Y-83901536D01*
X85411341Y-83931106D01*
X85285314Y-84015314D01*
X85201106Y-84141341D01*
X85171536Y-84290000D01*
X84705833Y-84290000D01*
X84671453Y-84238547D01*
X84280803Y-83977522D01*
X83936318Y-83909000D01*
X83703682Y-83909000D01*
X83359197Y-83977522D01*
X82968547Y-84238547D01*
X82707522Y-84629197D01*
X82615863Y-85090000D01*
X77889001Y-85090000D01*
X77889001Y-82511028D01*
X77898952Y-82461000D01*
X77889001Y-82410972D01*
X77889001Y-82410969D01*
X77864491Y-82287745D01*
X82991861Y-82287745D01*
X83065995Y-82533864D01*
X83603223Y-82726965D01*
X84173454Y-82699778D01*
X84574005Y-82533864D01*
X84648139Y-82287745D01*
X83820000Y-81459605D01*
X82991861Y-82287745D01*
X77864491Y-82287745D01*
X77859526Y-82262789D01*
X77848287Y-82245968D01*
X77775589Y-82137168D01*
X77775587Y-82137166D01*
X77747248Y-82094754D01*
X77704836Y-82066415D01*
X77323831Y-81685411D01*
X77323552Y-81685132D01*
X77404137Y-81280000D01*
X77361018Y-81063223D01*
X82373035Y-81063223D01*
X82400222Y-81633454D01*
X82566136Y-82034005D01*
X82812255Y-82108139D01*
X83640395Y-81280000D01*
X83999605Y-81280000D01*
X84827745Y-82108139D01*
X85073864Y-82034005D01*
X85266965Y-81496777D01*
X85239778Y-80926546D01*
X85073864Y-80525995D01*
X84827745Y-80451861D01*
X83999605Y-81280000D01*
X83640395Y-81280000D01*
X82812255Y-80451861D01*
X82566136Y-80525995D01*
X82373035Y-81063223D01*
X77361018Y-81063223D01*
X77312478Y-80819197D01*
X77051453Y-80428547D01*
X76817547Y-80272255D01*
X82991861Y-80272255D01*
X83820000Y-81100395D01*
X84648139Y-80272255D01*
X84574005Y-80026136D01*
X84036777Y-79833035D01*
X83466546Y-79860222D01*
X83065995Y-80026136D01*
X82991861Y-80272255D01*
X76817547Y-80272255D01*
X76660803Y-80167522D01*
X76316318Y-80099000D01*
X76083682Y-80099000D01*
X75739197Y-80167522D01*
X75348547Y-80428547D01*
X75087522Y-80819197D01*
X74995863Y-81280000D01*
X74864137Y-81280000D01*
X74772478Y-80819197D01*
X74511453Y-80428547D01*
X74120803Y-80167522D01*
X73776318Y-80099000D01*
X73543682Y-80099000D01*
X73199197Y-80167522D01*
X72808547Y-80428547D01*
X72547522Y-80819197D01*
X72455863Y-81280000D01*
X67221000Y-81280000D01*
X67221000Y-81045085D01*
X67041203Y-80611017D01*
X66708983Y-80278797D01*
X66274915Y-80099000D01*
X65805085Y-80099000D01*
X65371017Y-80278797D01*
X65038797Y-80611017D01*
X64859000Y-81045085D01*
X61268378Y-81045085D01*
X61094210Y-80870917D01*
X60476372Y-80615000D01*
X59807628Y-80615000D01*
X59189790Y-80870917D01*
X58716917Y-81343790D01*
X58461000Y-81961628D01*
X58461000Y-82630372D01*
X58716917Y-83248210D01*
X58937708Y-83469001D01*
X58330464Y-83469001D01*
X58330464Y-80996000D01*
X58300894Y-80847341D01*
X58216686Y-80721314D01*
X58090659Y-80637106D01*
X57942000Y-80607536D01*
X55342000Y-80607536D01*
X55193341Y-80637106D01*
X55067314Y-80721314D01*
X54983106Y-80847341D01*
X54953536Y-80996000D01*
X51256000Y-80996000D01*
X51256000Y-75983223D01*
X81643035Y-75983223D01*
X81670222Y-76553454D01*
X81836136Y-76954005D01*
X82082255Y-77028139D01*
X82910395Y-76200000D01*
X82082255Y-75371861D01*
X81836136Y-75445995D01*
X81643035Y-75983223D01*
X51256000Y-75983223D01*
X51256000Y-75192255D01*
X82261861Y-75192255D01*
X83090000Y-76020395D01*
X83104142Y-76006252D01*
X83283748Y-76185858D01*
X83269605Y-76200000D01*
X83283748Y-76214142D01*
X83104142Y-76393748D01*
X83090000Y-76379605D01*
X82261861Y-77207745D01*
X82335995Y-77453864D01*
X82873223Y-77646965D01*
X83443454Y-77619778D01*
X83844005Y-77453864D01*
X83918139Y-77207747D01*
X84033014Y-77322622D01*
X84054660Y-77300976D01*
X84141341Y-77358894D01*
X84290000Y-77388464D01*
X85890000Y-77388464D01*
X86038659Y-77358894D01*
X86164686Y-77274686D01*
X86248894Y-77148659D01*
X86278464Y-77000000D01*
X86278464Y-75400000D01*
X86248894Y-75251341D01*
X86164686Y-75125314D01*
X86038659Y-75041106D01*
X85890000Y-75011536D01*
X84290000Y-75011536D01*
X84141341Y-75041106D01*
X84054660Y-75099024D01*
X84033014Y-75077378D01*
X83918139Y-75192253D01*
X83844005Y-74946136D01*
X83306777Y-74753035D01*
X82736546Y-74780222D01*
X82335995Y-74946136D01*
X82261861Y-75192255D01*
X51256000Y-75192255D01*
X51256000Y-72390000D01*
X87695863Y-72390000D01*
X87787522Y-72850803D01*
X88048547Y-73241453D01*
X88439197Y-73502478D01*
X88783682Y-73571000D01*
X89016318Y-73571000D01*
X89360803Y-73502478D01*
X89476629Y-73425085D01*
X105499000Y-73425085D01*
X105499000Y-73894915D01*
X105678797Y-74328983D01*
X106011017Y-74661203D01*
X106445085Y-74841000D01*
X106914915Y-74841000D01*
X107348983Y-74661203D01*
X107681203Y-74328983D01*
X107861000Y-73894915D01*
X107861000Y-73425085D01*
X107681203Y-72991017D01*
X107348983Y-72658797D01*
X106914915Y-72479000D01*
X106445085Y-72479000D01*
X106011017Y-72658797D01*
X105678797Y-72991017D01*
X105499000Y-73425085D01*
X89476629Y-73425085D01*
X89751453Y-73241453D01*
X90012478Y-72850803D01*
X90104137Y-72390000D01*
X90012478Y-71929197D01*
X89751453Y-71538547D01*
X89360803Y-71277522D01*
X89016318Y-71209000D01*
X88783682Y-71209000D01*
X88439197Y-71277522D01*
X88048547Y-71538547D01*
X87787522Y-71929197D01*
X87695863Y-72390000D01*
X51256000Y-72390000D01*
X51256000Y-70320000D01*
X95331536Y-70320000D01*
X95331536Y-71920000D01*
X95361106Y-72068659D01*
X95445314Y-72194686D01*
X95571341Y-72278894D01*
X95720000Y-72308464D01*
X97320000Y-72308464D01*
X97468659Y-72278894D01*
X97594686Y-72194686D01*
X97678894Y-72068659D01*
X97708464Y-71920000D01*
X97708464Y-70320000D01*
X97678894Y-70171341D01*
X97594686Y-70045314D01*
X97468659Y-69961106D01*
X97368919Y-69941267D01*
X97521203Y-69788983D01*
X97701000Y-69354915D01*
X97701000Y-69050000D01*
X100411536Y-69050000D01*
X100411536Y-70650000D01*
X100441106Y-70798659D01*
X100525314Y-70924686D01*
X100651341Y-71008894D01*
X100800000Y-71038464D01*
X102400000Y-71038464D01*
X102548659Y-71008894D01*
X102674686Y-70924686D01*
X102758894Y-70798659D01*
X102778733Y-70698919D01*
X102931017Y-70851203D01*
X103365085Y-71031000D01*
X103834915Y-71031000D01*
X104268983Y-70851203D01*
X104601203Y-70518983D01*
X104781000Y-70084915D01*
X104781000Y-69615085D01*
X104601203Y-69181017D01*
X104268983Y-68848797D01*
X103834915Y-68669000D01*
X103365085Y-68669000D01*
X102931017Y-68848797D01*
X102778733Y-69001081D01*
X102758894Y-68901341D01*
X102674686Y-68775314D01*
X102548659Y-68691106D01*
X102400000Y-68661536D01*
X100800000Y-68661536D01*
X100651341Y-68691106D01*
X100525314Y-68775314D01*
X100441106Y-68901341D01*
X100411536Y-69050000D01*
X97701000Y-69050000D01*
X97701000Y-68885085D01*
X97521203Y-68451017D01*
X97188983Y-68118797D01*
X96754915Y-67939000D01*
X96285085Y-67939000D01*
X95851017Y-68118797D01*
X95518797Y-68451017D01*
X95339000Y-68885085D01*
X95339000Y-69354915D01*
X95518797Y-69788983D01*
X95671081Y-69941267D01*
X95571341Y-69961106D01*
X95445314Y-70045314D01*
X95361106Y-70171341D01*
X95331536Y-70320000D01*
X51256000Y-70320000D01*
X51256000Y-64535085D01*
X87719000Y-64535085D01*
X87719000Y-65004915D01*
X87898797Y-65438983D01*
X88231017Y-65771203D01*
X88665085Y-65951000D01*
X89134915Y-65951000D01*
X89568983Y-65771203D01*
X89901203Y-65438983D01*
X90081000Y-65004915D01*
X90081000Y-64535085D01*
X89901203Y-64101017D01*
X89568983Y-63768797D01*
X89134915Y-63589000D01*
X88665085Y-63589000D01*
X88231017Y-63768797D01*
X87898797Y-64101017D01*
X87719000Y-64535085D01*
X51256000Y-64535085D01*
X51256000Y-63265085D01*
X93339000Y-63265085D01*
X93339000Y-63734915D01*
X93518797Y-64168983D01*
X93851017Y-64501203D01*
X94285085Y-64681000D01*
X94754915Y-64681000D01*
X95188983Y-64501203D01*
X95341267Y-64348919D01*
X95361106Y-64448659D01*
X95445314Y-64574686D01*
X95571341Y-64658894D01*
X95720000Y-64688464D01*
X97320000Y-64688464D01*
X97468659Y-64658894D01*
X97594686Y-64574686D01*
X97678894Y-64448659D01*
X97708464Y-64300000D01*
X97708464Y-63265085D01*
X99689000Y-63265085D01*
X99689000Y-63734915D01*
X99868797Y-64168983D01*
X100201017Y-64501203D01*
X100635085Y-64681000D01*
X101104915Y-64681000D01*
X101538983Y-64501203D01*
X101691267Y-64348919D01*
X101711106Y-64448659D01*
X101795314Y-64574686D01*
X101921341Y-64658894D01*
X102070000Y-64688464D01*
X103670000Y-64688464D01*
X103818659Y-64658894D01*
X103944686Y-64574686D01*
X104028894Y-64448659D01*
X104058464Y-64300000D01*
X104058464Y-62700000D01*
X104028894Y-62551341D01*
X103944686Y-62425314D01*
X103818659Y-62341106D01*
X103670000Y-62311536D01*
X102070000Y-62311536D01*
X101921341Y-62341106D01*
X101795314Y-62425314D01*
X101711106Y-62551341D01*
X101691267Y-62651081D01*
X101538983Y-62498797D01*
X101104915Y-62319000D01*
X100635085Y-62319000D01*
X100201017Y-62498797D01*
X99868797Y-62831017D01*
X99689000Y-63265085D01*
X97708464Y-63265085D01*
X97708464Y-62700000D01*
X97678894Y-62551341D01*
X97594686Y-62425314D01*
X97468659Y-62341106D01*
X97320000Y-62311536D01*
X95720000Y-62311536D01*
X95571341Y-62341106D01*
X95445314Y-62425314D01*
X95361106Y-62551341D01*
X95341267Y-62651081D01*
X95188983Y-62498797D01*
X94754915Y-62319000D01*
X94285085Y-62319000D01*
X93851017Y-62498797D01*
X93518797Y-62831017D01*
X93339000Y-63265085D01*
X51256000Y-63265085D01*
X51256000Y-51256000D01*
X151944001Y-51256000D01*
X151944000Y-113844000D01*
X151944000Y-113844000D01*
G37*
X151944000Y-113844000D02*
X51256000Y-113844000D01*
X51256000Y-107950000D01*
X78805863Y-107950000D01*
X78897522Y-108410803D01*
X79158547Y-108801453D01*
X79549197Y-109062478D01*
X79893682Y-109131000D01*
X80126318Y-109131000D01*
X80470803Y-109062478D01*
X80861453Y-108801453D01*
X81122478Y-108410803D01*
X81214137Y-107950000D01*
X81167410Y-107715085D01*
X86449000Y-107715085D01*
X86449000Y-108184915D01*
X86628797Y-108618983D01*
X86961017Y-108951203D01*
X87395085Y-109131000D01*
X87864915Y-109131000D01*
X88298983Y-108951203D01*
X88631203Y-108618983D01*
X88811000Y-108184915D01*
X88811000Y-107715085D01*
X88744319Y-107554102D01*
X89223835Y-107074586D01*
X89266247Y-107046247D01*
X89294586Y-107003835D01*
X89294588Y-107003833D01*
X89378525Y-106878212D01*
X89386619Y-106837522D01*
X89408000Y-106730032D01*
X89408000Y-106730029D01*
X89417951Y-106680001D01*
X89408000Y-106629973D01*
X89408000Y-104140000D01*
X116905863Y-104140000D01*
X116997522Y-104600803D01*
X117258547Y-104991453D01*
X117649197Y-105252478D01*
X117993682Y-105321000D01*
X118226318Y-105321000D01*
X118570803Y-105252478D01*
X118961453Y-104991453D01*
X119222478Y-104600803D01*
X119314137Y-104140000D01*
X119222478Y-103679197D01*
X118961453Y-103288547D01*
X118570803Y-103027522D01*
X118226318Y-102959000D01*
X117993682Y-102959000D01*
X117649197Y-103027522D01*
X117258547Y-103288547D01*
X116997522Y-103679197D01*
X116905863Y-104140000D01*
X89408000Y-104140000D01*
X89408000Y-102270000D01*
X90451536Y-102270000D01*
X90451536Y-103470000D01*
X90481106Y-103618659D01*
X90565314Y-103744686D01*
X90691341Y-103828894D01*
X90840000Y-103858464D01*
X92040000Y-103858464D01*
X92188659Y-103828894D01*
X92314686Y-103744686D01*
X92398894Y-103618659D01*
X92428464Y-103470000D01*
X92428464Y-102270000D01*
X92398894Y-102121341D01*
X92314686Y-101995314D01*
X92247153Y-101950191D01*
X92271652Y-101925692D01*
X92421000Y-101565133D01*
X92421000Y-101174867D01*
X92271652Y-100814308D01*
X91995692Y-100538348D01*
X91635133Y-100389000D01*
X91244867Y-100389000D01*
X90884308Y-100538348D01*
X90608348Y-100814308D01*
X90459000Y-101174867D01*
X90459000Y-101565133D01*
X90608348Y-101925692D01*
X90632847Y-101950191D01*
X90565314Y-101995314D01*
X90481106Y-102121341D01*
X90451536Y-102270000D01*
X89408000Y-102270000D01*
X89408000Y-98698186D01*
X89501017Y-98791203D01*
X89935085Y-98971000D01*
X90404915Y-98971000D01*
X90838983Y-98791203D01*
X91171203Y-98458983D01*
X91303728Y-98139039D01*
X96398096Y-98139039D01*
X96558959Y-98527423D01*
X96934866Y-98942389D01*
X97440959Y-99181914D01*
X97663000Y-99060629D01*
X97663000Y-97917000D01*
X97917000Y-97917000D01*
X97917000Y-99060629D01*
X98139041Y-99181914D01*
X98645134Y-98942389D01*
X98751396Y-98825085D01*
X123279000Y-98825085D01*
X123279000Y-99294915D01*
X123458797Y-99728983D01*
X123791017Y-100061203D01*
X124225085Y-100241000D01*
X124694915Y-100241000D01*
X125128983Y-100061203D01*
X125461203Y-99728983D01*
X125641000Y-99294915D01*
X125641000Y-98825085D01*
X125461203Y-98391017D01*
X125128983Y-98058797D01*
X124694915Y-97879000D01*
X124225085Y-97879000D01*
X123791017Y-98058797D01*
X123458797Y-98391017D01*
X123279000Y-98825085D01*
X98751396Y-98825085D01*
X99021041Y-98527423D01*
X99181904Y-98139039D01*
X99059915Y-97917000D01*
X97917000Y-97917000D01*
X97663000Y-97917000D01*
X96520085Y-97917000D01*
X96398096Y-98139039D01*
X91303728Y-98139039D01*
X91351000Y-98024915D01*
X91351000Y-97555085D01*
X91303729Y-97440961D01*
X96398096Y-97440961D01*
X96520085Y-97663000D01*
X97663000Y-97663000D01*
X97663000Y-96519371D01*
X97917000Y-96519371D01*
X97917000Y-97663000D01*
X99059915Y-97663000D01*
X99181904Y-97440961D01*
X99021041Y-97052577D01*
X98645134Y-96637611D01*
X98139041Y-96398086D01*
X97917000Y-96519371D01*
X97663000Y-96519371D01*
X97440959Y-96398086D01*
X96934866Y-96637611D01*
X96558959Y-97052577D01*
X96398096Y-97440961D01*
X91303729Y-97440961D01*
X91171203Y-97121017D01*
X90838983Y-96788797D01*
X90404915Y-96609000D01*
X89935085Y-96609000D01*
X89501017Y-96788797D01*
X89408000Y-96881814D01*
X89408000Y-96285085D01*
X110619000Y-96285085D01*
X110619000Y-96754915D01*
X110798797Y-97188983D01*
X111131017Y-97521203D01*
X111565085Y-97701000D01*
X112034915Y-97701000D01*
X112468983Y-97521203D01*
X112801203Y-97188983D01*
X112981000Y-96754915D01*
X112981000Y-96285085D01*
X113119000Y-96285085D01*
X113119000Y-96754915D01*
X113298797Y-97188983D01*
X113631017Y-97521203D01*
X114065085Y-97701000D01*
X114534915Y-97701000D01*
X114968983Y-97521203D01*
X115301203Y-97188983D01*
X115481000Y-96754915D01*
X115481000Y-96285085D01*
X116929000Y-96285085D01*
X116929000Y-96754915D01*
X117108797Y-97188983D01*
X117441017Y-97521203D01*
X117875085Y-97701000D01*
X118344915Y-97701000D01*
X118778983Y-97521203D01*
X119111203Y-97188983D01*
X119291000Y-96754915D01*
X119291000Y-96285085D01*
X119111203Y-95851017D01*
X119020186Y-95760000D01*
X123271536Y-95760000D01*
X123271536Y-97360000D01*
X123301106Y-97508659D01*
X123385314Y-97634686D01*
X123511341Y-97718894D01*
X123660000Y-97748464D01*
X125260000Y-97748464D01*
X125408659Y-97718894D01*
X125534686Y-97634686D01*
X125618894Y-97508659D01*
X125648464Y-97360000D01*
X125648464Y-96285085D01*
X135979000Y-96285085D01*
X135979000Y-96754915D01*
X136158797Y-97188983D01*
X136491017Y-97521203D01*
X136925085Y-97701000D01*
X137394915Y-97701000D01*
X137828983Y-97521203D01*
X138161203Y-97188983D01*
X138341000Y-96754915D01*
X138341000Y-96285085D01*
X138161203Y-95851017D01*
X137828983Y-95518797D01*
X137394915Y-95339000D01*
X136925085Y-95339000D01*
X136491017Y-95518797D01*
X136158797Y-95851017D01*
X135979000Y-96285085D01*
X125648464Y-96285085D01*
X125648464Y-95760000D01*
X125618894Y-95611341D01*
X125534686Y-95485314D01*
X125408659Y-95401106D01*
X125260000Y-95371536D01*
X123660000Y-95371536D01*
X123511341Y-95401106D01*
X123385314Y-95485314D01*
X123301106Y-95611341D01*
X123271536Y-95760000D01*
X119020186Y-95760000D01*
X118778983Y-95518797D01*
X118344915Y-95339000D01*
X117875085Y-95339000D01*
X117441017Y-95518797D01*
X117108797Y-95851017D01*
X116929000Y-96285085D01*
X115481000Y-96285085D01*
X115301203Y-95851017D01*
X114968983Y-95518797D01*
X114534915Y-95339000D01*
X114065085Y-95339000D01*
X113631017Y-95518797D01*
X113298797Y-95851017D01*
X113119000Y-96285085D01*
X112981000Y-96285085D01*
X112801203Y-95851017D01*
X112468983Y-95518797D01*
X112034915Y-95339000D01*
X111565085Y-95339000D01*
X111131017Y-95518797D01*
X110798797Y-95851017D01*
X110619000Y-96285085D01*
X89408000Y-96285085D01*
X89408000Y-92710000D01*
X92775863Y-92710000D01*
X92867522Y-93170803D01*
X93128547Y-93561453D01*
X93519197Y-93822478D01*
X93863682Y-93891000D01*
X94096318Y-93891000D01*
X94440803Y-93822478D01*
X94831453Y-93561453D01*
X95092478Y-93170803D01*
X95184137Y-92710000D01*
X95092478Y-92249197D01*
X94831453Y-91858547D01*
X94440803Y-91597522D01*
X94096318Y-91529000D01*
X93863682Y-91529000D01*
X93519197Y-91597522D01*
X93128547Y-91858547D01*
X92867522Y-92249197D01*
X92775863Y-92710000D01*
X89408000Y-92710000D01*
X89408000Y-87630000D01*
X92775863Y-87630000D01*
X92867522Y-88090803D01*
X93128547Y-88481453D01*
X93519197Y-88742478D01*
X93863682Y-88811000D01*
X94096318Y-88811000D01*
X94440803Y-88742478D01*
X94831453Y-88481453D01*
X95092478Y-88090803D01*
X95184137Y-87630000D01*
X95103535Y-87224787D01*
X95103831Y-87224589D01*
X95371422Y-86956999D01*
X95549309Y-86956999D01*
X95407522Y-87169197D01*
X95315863Y-87630000D01*
X95407522Y-88090803D01*
X95668547Y-88481453D01*
X96059197Y-88742478D01*
X96392998Y-88808875D01*
X96392998Y-88899370D01*
X96170959Y-88778086D01*
X95664866Y-89017611D01*
X95288959Y-89432577D01*
X95128096Y-89820961D01*
X95250084Y-90042998D01*
X95158875Y-90042998D01*
X95092478Y-89709197D01*
X94831453Y-89318547D01*
X94440803Y-89057522D01*
X94096318Y-88989000D01*
X93863682Y-88989000D01*
X93519197Y-89057522D01*
X93128547Y-89318547D01*
X92867522Y-89709197D01*
X92775863Y-90170000D01*
X92867522Y-90630803D01*
X93128547Y-91021453D01*
X93519197Y-91282478D01*
X93863682Y-91351000D01*
X94096318Y-91351000D01*
X94440803Y-91282478D01*
X94831453Y-91021453D01*
X95092478Y-90630803D01*
X95158875Y-90297002D01*
X95250084Y-90297002D01*
X95128096Y-90519039D01*
X95288959Y-90907423D01*
X95664866Y-91322389D01*
X96170959Y-91561914D01*
X96392998Y-91440630D01*
X96392998Y-91531125D01*
X96059197Y-91597522D01*
X95668547Y-91858547D01*
X95407522Y-92249197D01*
X95315863Y-92710000D01*
X95407522Y-93170803D01*
X95668547Y-93561453D01*
X96059197Y-93822478D01*
X96403682Y-93891000D01*
X96636318Y-93891000D01*
X96980803Y-93822478D01*
X97371453Y-93561453D01*
X97632478Y-93170803D01*
X97724137Y-92710000D01*
X97643552Y-92304868D01*
X97714586Y-92233834D01*
X97911422Y-92036999D01*
X103169309Y-92036999D01*
X103027522Y-92249197D01*
X102935863Y-92710000D01*
X103027522Y-93170803D01*
X103288547Y-93561453D01*
X103679197Y-93822478D01*
X104023682Y-93891000D01*
X104256318Y-93891000D01*
X104600803Y-93822478D01*
X104991453Y-93561453D01*
X105252478Y-93170803D01*
X105344137Y-92710000D01*
X105252478Y-92249197D01*
X105110691Y-92036999D01*
X105288579Y-92036999D01*
X105556448Y-92304869D01*
X105475863Y-92710000D01*
X105567522Y-93170803D01*
X105828547Y-93561453D01*
X106219197Y-93822478D01*
X106563682Y-93891000D01*
X106796318Y-93891000D01*
X107140803Y-93822478D01*
X107531453Y-93561453D01*
X107792478Y-93170803D01*
X107884137Y-92710000D01*
X107803552Y-92304868D01*
X107874586Y-92233834D01*
X108071422Y-92036999D01*
X113329309Y-92036999D01*
X113187522Y-92249197D01*
X113095863Y-92710000D01*
X113187522Y-93170803D01*
X113448547Y-93561453D01*
X113839197Y-93822478D01*
X114183682Y-93891000D01*
X114416318Y-93891000D01*
X114760803Y-93822478D01*
X115151453Y-93561453D01*
X115412478Y-93170803D01*
X115504137Y-92710000D01*
X115412478Y-92249197D01*
X115270691Y-92036999D01*
X115448579Y-92036999D01*
X115716448Y-92304869D01*
X115635863Y-92710000D01*
X115727522Y-93170803D01*
X115988547Y-93561453D01*
X116379197Y-93822478D01*
X116723682Y-93891000D01*
X116956318Y-93891000D01*
X117300803Y-93822478D01*
X117691453Y-93561453D01*
X117952478Y-93170803D01*
X118044137Y-92710000D01*
X123255863Y-92710000D01*
X123347522Y-93170803D01*
X123608547Y-93561453D01*
X123999197Y-93822478D01*
X124343682Y-93891000D01*
X124576318Y-93891000D01*
X124920803Y-93822478D01*
X125311453Y-93561453D01*
X125572478Y-93170803D01*
X125664137Y-92710000D01*
X127065863Y-92710000D01*
X127157522Y-93170803D01*
X127418547Y-93561453D01*
X127809197Y-93822478D01*
X128153682Y-93891000D01*
X128386318Y-93891000D01*
X128730803Y-93822478D01*
X129121453Y-93561453D01*
X129382478Y-93170803D01*
X129474137Y-92710000D01*
X129382478Y-92249197D01*
X129121453Y-91858547D01*
X128730803Y-91597522D01*
X128386318Y-91529000D01*
X128153682Y-91529000D01*
X127809197Y-91597522D01*
X127418547Y-91858547D01*
X127157522Y-92249197D01*
X127065863Y-92710000D01*
X125664137Y-92710000D01*
X125572478Y-92249197D01*
X125311453Y-91858547D01*
X124920803Y-91597522D01*
X124576318Y-91529000D01*
X124343682Y-91529000D01*
X123999197Y-91597522D01*
X123608547Y-91858547D01*
X123347522Y-92249197D01*
X123255863Y-92710000D01*
X118044137Y-92710000D01*
X117952478Y-92249197D01*
X117691756Y-91859001D01*
X120688971Y-91859001D01*
X120738999Y-91868952D01*
X120789027Y-91859001D01*
X120789031Y-91859001D01*
X120937211Y-91829526D01*
X121105246Y-91717248D01*
X121133587Y-91674833D01*
X122638420Y-90170000D01*
X123255863Y-90170000D01*
X123347522Y-90630803D01*
X123608547Y-91021453D01*
X123999197Y-91282478D01*
X124343682Y-91351000D01*
X124576318Y-91351000D01*
X124920803Y-91282478D01*
X125311453Y-91021453D01*
X125572478Y-90630803D01*
X125664137Y-90170000D01*
X125572478Y-89709197D01*
X125311453Y-89318547D01*
X124920803Y-89057522D01*
X124576318Y-88989000D01*
X124343682Y-88989000D01*
X123999197Y-89057522D01*
X123608547Y-89318547D01*
X123347522Y-89709197D01*
X123255863Y-90170000D01*
X122638420Y-90170000D01*
X123908420Y-88900000D01*
X135955863Y-88900000D01*
X136047522Y-89360803D01*
X136308547Y-89751453D01*
X136699197Y-90012478D01*
X137043682Y-90081000D01*
X137276318Y-90081000D01*
X137620803Y-90012478D01*
X138011453Y-89751453D01*
X138272478Y-89360803D01*
X138364137Y-88900000D01*
X138272478Y-88439197D01*
X138011453Y-88048547D01*
X137620803Y-87787522D01*
X137276318Y-87719000D01*
X137043682Y-87719000D01*
X136699197Y-87787522D01*
X136308547Y-88048547D01*
X136047522Y-88439197D01*
X135955863Y-88900000D01*
X123908420Y-88900000D01*
X124054869Y-88753552D01*
X124343682Y-88811000D01*
X124576318Y-88811000D01*
X124920803Y-88742478D01*
X125311453Y-88481453D01*
X125572478Y-88090803D01*
X125664137Y-87630000D01*
X125572478Y-87169197D01*
X125311453Y-86778547D01*
X124920803Y-86517522D01*
X124576318Y-86449000D01*
X124343682Y-86449000D01*
X123999197Y-86517522D01*
X123608547Y-86778547D01*
X123347522Y-87169197D01*
X123255863Y-87630000D01*
X123336448Y-88035131D01*
X120528579Y-90843001D01*
X117810691Y-90843001D01*
X117952478Y-90630803D01*
X118044137Y-90170000D01*
X117963552Y-89764868D01*
X119703833Y-88024587D01*
X119746247Y-87996247D01*
X119858525Y-87828212D01*
X119888000Y-87680032D01*
X119888000Y-87680029D01*
X119897951Y-87630001D01*
X119888000Y-87579973D01*
X119888000Y-85090000D01*
X123255863Y-85090000D01*
X123347522Y-85550803D01*
X123608547Y-85941453D01*
X123999197Y-86202478D01*
X124343682Y-86271000D01*
X124576318Y-86271000D01*
X124920803Y-86202478D01*
X125311453Y-85941453D01*
X125572478Y-85550803D01*
X125664137Y-85090000D01*
X125617410Y-84855085D01*
X127089000Y-84855085D01*
X127089000Y-85324915D01*
X127268797Y-85758983D01*
X127601017Y-86091203D01*
X128035085Y-86271000D01*
X128504915Y-86271000D01*
X128938983Y-86091203D01*
X129270186Y-85760000D01*
X132361536Y-85760000D01*
X132361536Y-86960000D01*
X132391106Y-87108659D01*
X132475314Y-87234686D01*
X132601341Y-87318894D01*
X132750000Y-87348464D01*
X133950000Y-87348464D01*
X134098659Y-87318894D01*
X134224686Y-87234686D01*
X134308894Y-87108659D01*
X134338464Y-86960000D01*
X134338464Y-85760000D01*
X134308894Y-85611341D01*
X134224686Y-85485314D01*
X134157153Y-85440191D01*
X134181652Y-85415692D01*
X134331000Y-85055133D01*
X134331000Y-84664867D01*
X134181652Y-84304308D01*
X133905692Y-84028348D01*
X133545133Y-83879000D01*
X133154867Y-83879000D01*
X132794308Y-84028348D01*
X132518348Y-84304308D01*
X132369000Y-84664867D01*
X132369000Y-85055133D01*
X132518348Y-85415692D01*
X132542847Y-85440191D01*
X132475314Y-85485314D01*
X132391106Y-85611341D01*
X132361536Y-85760000D01*
X129270186Y-85760000D01*
X129271203Y-85758983D01*
X129451000Y-85324915D01*
X129451000Y-84855085D01*
X129271203Y-84421017D01*
X128938983Y-84088797D01*
X128504915Y-83909000D01*
X128035085Y-83909000D01*
X127601017Y-84088797D01*
X127268797Y-84421017D01*
X127089000Y-84855085D01*
X125617410Y-84855085D01*
X125572478Y-84629197D01*
X125311453Y-84238547D01*
X124920803Y-83977522D01*
X124576318Y-83909000D01*
X124343682Y-83909000D01*
X123999197Y-83977522D01*
X123608547Y-84238547D01*
X123347522Y-84629197D01*
X123255863Y-85090000D01*
X119888000Y-85090000D01*
X119888000Y-82360942D01*
X120231453Y-82131453D01*
X120492478Y-81740803D01*
X120584137Y-81280000D01*
X120715863Y-81280000D01*
X120807522Y-81740803D01*
X121068547Y-82131453D01*
X121459197Y-82392478D01*
X121803682Y-82461000D01*
X122036318Y-82461000D01*
X122380803Y-82392478D01*
X122771453Y-82131453D01*
X123032478Y-81740803D01*
X123124137Y-81280000D01*
X123077410Y-81045085D01*
X128359000Y-81045085D01*
X128359000Y-81514915D01*
X128538797Y-81948983D01*
X128871017Y-82281203D01*
X129305085Y-82461000D01*
X129774915Y-82461000D01*
X130208983Y-82281203D01*
X130541203Y-81948983D01*
X130721000Y-81514915D01*
X130721000Y-81045085D01*
X130541203Y-80611017D01*
X130208983Y-80278797D01*
X129774915Y-80099000D01*
X129305085Y-80099000D01*
X128871017Y-80278797D01*
X128538797Y-80611017D01*
X128359000Y-81045085D01*
X123077410Y-81045085D01*
X123032478Y-80819197D01*
X122771453Y-80428547D01*
X122380803Y-80167522D01*
X122036318Y-80099000D01*
X121803682Y-80099000D01*
X121459197Y-80167522D01*
X121068547Y-80428547D01*
X120807522Y-80819197D01*
X120715863Y-81280000D01*
X120584137Y-81280000D01*
X120492478Y-80819197D01*
X120231453Y-80428547D01*
X119840803Y-80167522D01*
X119496318Y-80099000D01*
X119263682Y-80099000D01*
X118919197Y-80167522D01*
X118528547Y-80428547D01*
X118267522Y-80819197D01*
X118175863Y-81280000D01*
X118267522Y-81740803D01*
X118528547Y-82131453D01*
X118872001Y-82360942D01*
X118872000Y-87419580D01*
X117245132Y-89046448D01*
X116956318Y-88989000D01*
X116723682Y-88989000D01*
X116379197Y-89057522D01*
X115989001Y-89318244D01*
X115989001Y-88861028D01*
X115998952Y-88811000D01*
X115989001Y-88760972D01*
X115989001Y-88760969D01*
X115959526Y-88612789D01*
X115947246Y-88594411D01*
X115875589Y-88487168D01*
X115875587Y-88487166D01*
X115847248Y-88444754D01*
X115804836Y-88416415D01*
X115423831Y-88035411D01*
X115423552Y-88035132D01*
X115485335Y-87724525D01*
X115500214Y-87727484D01*
X115658999Y-87759069D01*
X115661440Y-87758584D01*
X115727522Y-88090803D01*
X115988547Y-88481453D01*
X116379197Y-88742478D01*
X116723682Y-88811000D01*
X116956318Y-88811000D01*
X117300803Y-88742478D01*
X117691453Y-88481453D01*
X117952478Y-88090803D01*
X118044137Y-87630000D01*
X117952478Y-87169197D01*
X117691453Y-86778547D01*
X117300803Y-86517522D01*
X116956318Y-86449000D01*
X116723682Y-86449000D01*
X116379197Y-86517522D01*
X116166999Y-86659309D01*
X116166999Y-86278464D01*
X117640000Y-86278464D01*
X117788659Y-86248894D01*
X117914686Y-86164686D01*
X117998894Y-86038659D01*
X118028464Y-85890000D01*
X118028464Y-84290000D01*
X117998894Y-84141341D01*
X117914686Y-84015314D01*
X117788659Y-83931106D01*
X117640000Y-83901536D01*
X116166999Y-83901536D01*
X116166999Y-77819039D01*
X123068096Y-77819039D01*
X123228959Y-78207423D01*
X123604866Y-78622389D01*
X124110959Y-78861914D01*
X124333000Y-78740629D01*
X124333000Y-77597000D01*
X124587000Y-77597000D01*
X124587000Y-78740629D01*
X124809041Y-78861914D01*
X125315134Y-78622389D01*
X125691041Y-78207423D01*
X125851904Y-77819039D01*
X125729915Y-77597000D01*
X124587000Y-77597000D01*
X124333000Y-77597000D01*
X123190085Y-77597000D01*
X123068096Y-77819039D01*
X116166999Y-77819039D01*
X116166999Y-77120961D01*
X123068096Y-77120961D01*
X123190085Y-77343000D01*
X124333000Y-77343000D01*
X124333000Y-76199371D01*
X124587000Y-76199371D01*
X124587000Y-77343000D01*
X125729915Y-77343000D01*
X125789203Y-77235085D01*
X130899000Y-77235085D01*
X130899000Y-77704915D01*
X131078797Y-78138983D01*
X131411017Y-78471203D01*
X131845085Y-78651000D01*
X132314915Y-78651000D01*
X132748983Y-78471203D01*
X133081203Y-78138983D01*
X133261000Y-77704915D01*
X133261000Y-77235085D01*
X133081203Y-76801017D01*
X132748983Y-76468797D01*
X132314915Y-76289000D01*
X131845085Y-76289000D01*
X131411017Y-76468797D01*
X131078797Y-76801017D01*
X130899000Y-77235085D01*
X125789203Y-77235085D01*
X125851904Y-77120961D01*
X125691041Y-76732577D01*
X125315134Y-76317611D01*
X124809041Y-76078086D01*
X124587000Y-76199371D01*
X124333000Y-76199371D01*
X124110959Y-76078086D01*
X123604866Y-76317611D01*
X123228959Y-76732577D01*
X123068096Y-77120961D01*
X116166999Y-77120961D01*
X116166999Y-73837421D01*
X117387418Y-72617002D01*
X117831628Y-72801000D01*
X118500372Y-72801000D01*
X119118210Y-72545083D01*
X119591083Y-72072210D01*
X119847000Y-71454372D01*
X119847000Y-70785628D01*
X119985000Y-70785628D01*
X119985000Y-71454372D01*
X120240917Y-72072210D01*
X120713790Y-72545083D01*
X121331628Y-72801000D01*
X122000372Y-72801000D01*
X122618210Y-72545083D01*
X123091083Y-72072210D01*
X123347000Y-71454372D01*
X123347000Y-70785628D01*
X123091083Y-70167790D01*
X122743293Y-69820000D01*
X123477536Y-69820000D01*
X123477536Y-72420000D01*
X123507106Y-72568659D01*
X123591314Y-72694686D01*
X123717341Y-72778894D01*
X123866000Y-72808464D01*
X126466000Y-72808464D01*
X126614659Y-72778894D01*
X126740686Y-72694686D01*
X126824894Y-72568659D01*
X126854464Y-72420000D01*
X126854464Y-69820000D01*
X126824894Y-69671341D01*
X126740686Y-69545314D01*
X126614659Y-69461106D01*
X126466000Y-69431536D01*
X123866000Y-69431536D01*
X123717341Y-69461106D01*
X123591314Y-69545314D01*
X123507106Y-69671341D01*
X123477536Y-69820000D01*
X122743293Y-69820000D01*
X122618210Y-69694917D01*
X122000372Y-69439000D01*
X121331628Y-69439000D01*
X120713790Y-69694917D01*
X120240917Y-70167790D01*
X119985000Y-70785628D01*
X119847000Y-70785628D01*
X119591083Y-70167790D01*
X119118210Y-69694917D01*
X118500372Y-69439000D01*
X117831628Y-69439000D01*
X117213790Y-69694917D01*
X116740917Y-70167790D01*
X116485000Y-70785628D01*
X116485000Y-71454372D01*
X116668998Y-71898582D01*
X115335167Y-73232413D01*
X115292752Y-73260754D01*
X115180474Y-73428790D01*
X115150999Y-73576970D01*
X115150999Y-73576973D01*
X115141048Y-73627001D01*
X115150999Y-73677029D01*
X115151000Y-84238244D01*
X114760803Y-83977522D01*
X114416318Y-83909000D01*
X114183682Y-83909000D01*
X113839197Y-83977522D01*
X113448547Y-84238547D01*
X113187522Y-84629197D01*
X113095863Y-85090000D01*
X113187522Y-85550803D01*
X113448244Y-85940999D01*
X112991028Y-85940999D01*
X112941000Y-85931048D01*
X112890972Y-85940999D01*
X112890969Y-85940999D01*
X112742789Y-85970474D01*
X112617168Y-86054411D01*
X112617166Y-86054413D01*
X112574754Y-86082752D01*
X112546415Y-86125164D01*
X107537171Y-91134409D01*
X107537168Y-91134411D01*
X107537166Y-91134413D01*
X107494754Y-91162752D01*
X107466415Y-91205164D01*
X107279530Y-91392050D01*
X107085132Y-91586448D01*
X106796318Y-91529000D01*
X106563682Y-91529000D01*
X106274869Y-91586448D01*
X105893587Y-91205167D01*
X105865246Y-91162752D01*
X105697211Y-91050474D01*
X105549031Y-91020999D01*
X105549027Y-91020999D01*
X105498999Y-91011048D01*
X105448971Y-91020999D01*
X104991756Y-91020999D01*
X105252478Y-90630803D01*
X105344137Y-90170000D01*
X105252478Y-89709197D01*
X104991453Y-89318547D01*
X104600803Y-89057522D01*
X104256318Y-88989000D01*
X104023682Y-88989000D01*
X103679197Y-89057522D01*
X103288547Y-89318547D01*
X103027522Y-89709197D01*
X102935863Y-90170000D01*
X103027522Y-90630803D01*
X103288244Y-91020999D01*
X97751028Y-91020999D01*
X97701000Y-91011048D01*
X97650972Y-91020999D01*
X97650969Y-91020999D01*
X97647537Y-91021682D01*
X97751041Y-90907423D01*
X97911904Y-90519039D01*
X97789915Y-90297000D01*
X96647000Y-90297000D01*
X96647000Y-90317000D01*
X96393000Y-90317000D01*
X96393000Y-90297000D01*
X96373000Y-90297000D01*
X96373000Y-90043000D01*
X96393000Y-90043000D01*
X96393000Y-90023000D01*
X96647000Y-90023000D01*
X96647000Y-90043000D01*
X97789915Y-90043000D01*
X97911904Y-89820961D01*
X97751041Y-89432577D01*
X97375134Y-89017611D01*
X96869041Y-88778086D01*
X96647002Y-88899370D01*
X96647002Y-88808875D01*
X96980803Y-88742478D01*
X97371453Y-88481453D01*
X97632478Y-88090803D01*
X97724137Y-87630000D01*
X97632478Y-87169197D01*
X97490691Y-86956999D01*
X102748579Y-86956999D01*
X103016448Y-87224869D01*
X102935863Y-87630000D01*
X103027522Y-88090803D01*
X103288547Y-88481453D01*
X103679197Y-88742478D01*
X104023682Y-88811000D01*
X104256318Y-88811000D01*
X104600803Y-88742478D01*
X104990999Y-88481756D01*
X104990999Y-88938971D01*
X104981048Y-88988999D01*
X104990999Y-89039027D01*
X104990999Y-89039030D01*
X105020474Y-89187210D01*
X105132752Y-89355246D01*
X105175167Y-89383587D01*
X105556448Y-89764869D01*
X105475863Y-90170000D01*
X105567522Y-90630803D01*
X105828547Y-91021453D01*
X106219197Y-91282478D01*
X106563682Y-91351000D01*
X106796318Y-91351000D01*
X107140803Y-91282478D01*
X107531453Y-91021453D01*
X107792478Y-90630803D01*
X107884137Y-90170000D01*
X107792478Y-89709197D01*
X107531453Y-89318547D01*
X107140803Y-89057522D01*
X106796318Y-88989000D01*
X106563682Y-88989000D01*
X106274869Y-89046448D01*
X106006999Y-88778579D01*
X106006999Y-88600691D01*
X106219197Y-88742478D01*
X106563682Y-88811000D01*
X106796318Y-88811000D01*
X107140803Y-88742478D01*
X107531453Y-88481453D01*
X107792478Y-88090803D01*
X107884137Y-87630000D01*
X107792478Y-87169197D01*
X107531453Y-86778547D01*
X107140803Y-86517522D01*
X106796318Y-86449000D01*
X106563682Y-86449000D01*
X106219197Y-86517522D01*
X106006999Y-86659309D01*
X106006999Y-86278464D01*
X107480000Y-86278464D01*
X107628659Y-86248894D01*
X107754686Y-86164686D01*
X107838894Y-86038659D01*
X107868464Y-85890000D01*
X107868464Y-84290000D01*
X107838894Y-84141341D01*
X107754686Y-84015314D01*
X107628659Y-83931106D01*
X107480000Y-83901536D01*
X106006999Y-83901536D01*
X106006999Y-83229027D01*
X106016950Y-83178999D01*
X106006999Y-83128971D01*
X106006999Y-83128967D01*
X105977524Y-82980787D01*
X105949954Y-82939526D01*
X105893587Y-82855166D01*
X105893585Y-82855164D01*
X105865246Y-82812752D01*
X105822834Y-82784413D01*
X104667462Y-81629041D01*
X105288086Y-81629041D01*
X105527611Y-82135134D01*
X105942577Y-82511041D01*
X106330961Y-82671904D01*
X106553000Y-82549915D01*
X106553000Y-81407000D01*
X106807000Y-81407000D01*
X106807000Y-82549915D01*
X107029039Y-82671904D01*
X107417423Y-82511041D01*
X107663920Y-82287745D01*
X110931861Y-82287745D01*
X111005995Y-82533864D01*
X111543223Y-82726965D01*
X112113454Y-82699778D01*
X112514005Y-82533864D01*
X112588139Y-82287745D01*
X111760000Y-81459605D01*
X110931861Y-82287745D01*
X107663920Y-82287745D01*
X107832389Y-82135134D01*
X108071914Y-81629041D01*
X107950629Y-81407000D01*
X106807000Y-81407000D01*
X106553000Y-81407000D01*
X105409371Y-81407000D01*
X105288086Y-81629041D01*
X104667462Y-81629041D01*
X103969380Y-80930959D01*
X105288086Y-80930959D01*
X105409371Y-81153000D01*
X106553000Y-81153000D01*
X106553000Y-80010085D01*
X106807000Y-80010085D01*
X106807000Y-81153000D01*
X107950629Y-81153000D01*
X107999667Y-81063223D01*
X110313035Y-81063223D01*
X110340222Y-81633454D01*
X110506136Y-82034005D01*
X110752255Y-82108139D01*
X111580395Y-81280000D01*
X111939605Y-81280000D01*
X112767745Y-82108139D01*
X113013864Y-82034005D01*
X113206965Y-81496777D01*
X113179778Y-80926546D01*
X113013864Y-80525995D01*
X112767745Y-80451861D01*
X111939605Y-81280000D01*
X111580395Y-81280000D01*
X110752255Y-80451861D01*
X110506136Y-80525995D01*
X110313035Y-81063223D01*
X107999667Y-81063223D01*
X108071914Y-80930959D01*
X107832389Y-80424866D01*
X107663921Y-80272255D01*
X110931861Y-80272255D01*
X111760000Y-81100395D01*
X112588139Y-80272255D01*
X112514005Y-80026136D01*
X111976777Y-79833035D01*
X111406546Y-79860222D01*
X111005995Y-80026136D01*
X110931861Y-80272255D01*
X107663921Y-80272255D01*
X107417423Y-80048959D01*
X107029039Y-79888096D01*
X106807000Y-80010085D01*
X106553000Y-80010085D01*
X106330961Y-79888096D01*
X105942577Y-80048959D01*
X105527611Y-80424866D01*
X105288086Y-80930959D01*
X103969380Y-80930959D01*
X103453831Y-80415411D01*
X103444318Y-80405898D01*
X103511000Y-80244915D01*
X103511000Y-79775085D01*
X103331203Y-79341017D01*
X102998983Y-79008797D01*
X102564915Y-78829000D01*
X102095085Y-78829000D01*
X101661017Y-79008797D01*
X101508733Y-79161081D01*
X101488894Y-79061341D01*
X101404686Y-78935314D01*
X101278659Y-78851106D01*
X101130000Y-78821536D01*
X99530000Y-78821536D01*
X99381341Y-78851106D01*
X99255314Y-78935314D01*
X99171106Y-79061341D01*
X99141536Y-79210000D01*
X99141536Y-80810000D01*
X99171106Y-80958659D01*
X99255314Y-81084686D01*
X99381341Y-81168894D01*
X99530000Y-81198464D01*
X101130000Y-81198464D01*
X101278659Y-81168894D01*
X101404686Y-81084686D01*
X101488894Y-80958659D01*
X101508733Y-80858919D01*
X101661017Y-81011203D01*
X102095085Y-81191000D01*
X102564915Y-81191000D01*
X102725898Y-81124318D01*
X102735411Y-81133831D01*
X104991000Y-83389421D01*
X104991000Y-84238244D01*
X104600803Y-83977522D01*
X104256318Y-83909000D01*
X104023682Y-83909000D01*
X103679197Y-83977522D01*
X103288547Y-84238547D01*
X103027522Y-84629197D01*
X102935863Y-85090000D01*
X103027522Y-85550803D01*
X103288547Y-85941453D01*
X103679197Y-86202478D01*
X104023682Y-86271000D01*
X104256318Y-86271000D01*
X104600803Y-86202478D01*
X104991000Y-85941756D01*
X104990999Y-86778244D01*
X104600803Y-86517522D01*
X104256318Y-86449000D01*
X104023682Y-86449000D01*
X103734869Y-86506448D01*
X103353587Y-86125167D01*
X103325246Y-86082752D01*
X103157211Y-85970474D01*
X103009031Y-85940999D01*
X103009027Y-85940999D01*
X102958999Y-85931048D01*
X102908971Y-85940999D01*
X97698320Y-85940999D01*
X97708464Y-85890000D01*
X97708464Y-84290000D01*
X97678894Y-84141341D01*
X97594686Y-84015314D01*
X97468659Y-83931106D01*
X97320000Y-83901536D01*
X95720000Y-83901536D01*
X95571341Y-83931106D01*
X95445314Y-84015314D01*
X95361106Y-84141341D01*
X95331536Y-84290000D01*
X95331536Y-85890000D01*
X95341680Y-85940999D01*
X95211028Y-85940999D01*
X95161000Y-85931048D01*
X95110972Y-85940999D01*
X95110969Y-85940999D01*
X94962789Y-85970474D01*
X94837168Y-86054411D01*
X94837166Y-86054413D01*
X94794754Y-86082752D01*
X94766415Y-86125164D01*
X94385411Y-86506169D01*
X94385213Y-86506465D01*
X94096318Y-86449000D01*
X93863682Y-86449000D01*
X93519197Y-86517522D01*
X93128547Y-86778547D01*
X92867522Y-87169197D01*
X92775863Y-87630000D01*
X89408000Y-87630000D01*
X89408000Y-85090000D01*
X92775863Y-85090000D01*
X92867522Y-85550803D01*
X93128547Y-85941453D01*
X93519197Y-86202478D01*
X93863682Y-86271000D01*
X94096318Y-86271000D01*
X94440803Y-86202478D01*
X94831453Y-85941453D01*
X95092478Y-85550803D01*
X95184137Y-85090000D01*
X95092478Y-84629197D01*
X94831453Y-84238547D01*
X94440803Y-83977522D01*
X94096318Y-83909000D01*
X93863682Y-83909000D01*
X93519197Y-83977522D01*
X93128547Y-84238547D01*
X92867522Y-84629197D01*
X92775863Y-85090000D01*
X89408000Y-85090000D01*
X89408000Y-77280942D01*
X89751453Y-77051453D01*
X90012478Y-76660803D01*
X90104137Y-76200000D01*
X90057410Y-75965085D01*
X95339000Y-75965085D01*
X95339000Y-76434915D01*
X95518797Y-76868983D01*
X95851017Y-77201203D01*
X96285085Y-77381000D01*
X96754915Y-77381000D01*
X97188983Y-77201203D01*
X97521203Y-76868983D01*
X97701000Y-76434915D01*
X97701000Y-75965085D01*
X97521203Y-75531017D01*
X97188983Y-75198797D01*
X96754915Y-75019000D01*
X96285085Y-75019000D01*
X95851017Y-75198797D01*
X95518797Y-75531017D01*
X95339000Y-75965085D01*
X90057410Y-75965085D01*
X90012478Y-75739197D01*
X89751453Y-75348547D01*
X89360803Y-75087522D01*
X89016318Y-75019000D01*
X88783682Y-75019000D01*
X88439197Y-75087522D01*
X88048547Y-75348547D01*
X87787522Y-75739197D01*
X87695863Y-76200000D01*
X87787522Y-76660803D01*
X88048547Y-77051453D01*
X88392000Y-77280942D01*
X88392001Y-106469578D01*
X88025898Y-106835681D01*
X87864915Y-106769000D01*
X87395085Y-106769000D01*
X86961017Y-106948797D01*
X86628797Y-107281017D01*
X86449000Y-107715085D01*
X81167410Y-107715085D01*
X81122478Y-107489197D01*
X80861453Y-107098547D01*
X80470803Y-106837522D01*
X80126318Y-106769000D01*
X79893682Y-106769000D01*
X79549197Y-106837522D01*
X79158547Y-107098547D01*
X78897522Y-107489197D01*
X78805863Y-107950000D01*
X51256000Y-107950000D01*
X51256000Y-103905085D01*
X66129000Y-103905085D01*
X66129000Y-104374915D01*
X66308797Y-104808983D01*
X66641017Y-105141203D01*
X67075085Y-105321000D01*
X67544915Y-105321000D01*
X67978983Y-105141203D01*
X68311203Y-104808983D01*
X68491000Y-104374915D01*
X68491000Y-103905085D01*
X68311203Y-103471017D01*
X67978983Y-103138797D01*
X67544915Y-102959000D01*
X67075085Y-102959000D01*
X66641017Y-103138797D01*
X66308797Y-103471017D01*
X66129000Y-103905085D01*
X51256000Y-103905085D01*
X51256000Y-102635085D01*
X77559000Y-102635085D01*
X77559000Y-103104915D01*
X77738797Y-103538983D01*
X78071017Y-103871203D01*
X78505085Y-104051000D01*
X78974915Y-104051000D01*
X79408983Y-103871203D01*
X79741203Y-103538983D01*
X79921000Y-103104915D01*
X79921000Y-102635085D01*
X79741203Y-102201017D01*
X79408983Y-101868797D01*
X78974915Y-101689000D01*
X78505085Y-101689000D01*
X78071017Y-101868797D01*
X77738797Y-102201017D01*
X77559000Y-102635085D01*
X51256000Y-102635085D01*
X51256000Y-100134867D01*
X61249000Y-100134867D01*
X61249000Y-100525133D01*
X61398348Y-100885692D01*
X61674308Y-101161652D01*
X62034867Y-101311000D01*
X62425133Y-101311000D01*
X62785692Y-101161652D01*
X62810191Y-101137153D01*
X62855314Y-101204686D01*
X62981341Y-101288894D01*
X63130000Y-101318464D01*
X64330000Y-101318464D01*
X64478659Y-101288894D01*
X64604686Y-101204686D01*
X64688894Y-101078659D01*
X64718464Y-100930000D01*
X64718464Y-99730000D01*
X64688894Y-99581341D01*
X64654590Y-99530000D01*
X72471536Y-99530000D01*
X72471536Y-101130000D01*
X72501106Y-101278659D01*
X72585314Y-101404686D01*
X72711341Y-101488894D01*
X72860000Y-101518464D01*
X74460000Y-101518464D01*
X74608659Y-101488894D01*
X74734686Y-101404686D01*
X74818894Y-101278659D01*
X74848464Y-101130000D01*
X74848464Y-99530000D01*
X74818894Y-99381341D01*
X74734686Y-99255314D01*
X74608659Y-99171106D01*
X74460000Y-99141536D01*
X72860000Y-99141536D01*
X72711341Y-99171106D01*
X72585314Y-99255314D01*
X72501106Y-99381341D01*
X72471536Y-99530000D01*
X64654590Y-99530000D01*
X64604686Y-99455314D01*
X64478659Y-99371106D01*
X64330000Y-99341536D01*
X63130000Y-99341536D01*
X62981341Y-99371106D01*
X62855314Y-99455314D01*
X62810191Y-99522847D01*
X62785692Y-99498348D01*
X62425133Y-99349000D01*
X62034867Y-99349000D01*
X61674308Y-99498348D01*
X61398348Y-99774308D01*
X61249000Y-100134867D01*
X51256000Y-100134867D01*
X51256000Y-96285085D01*
X61049000Y-96285085D01*
X61049000Y-96754915D01*
X61228797Y-97188983D01*
X61561017Y-97521203D01*
X61995085Y-97701000D01*
X62464915Y-97701000D01*
X62898983Y-97521203D01*
X63231203Y-97188983D01*
X63411000Y-96754915D01*
X63411000Y-96520000D01*
X66105863Y-96520000D01*
X66197522Y-96980803D01*
X66458547Y-97371453D01*
X66849197Y-97632478D01*
X67193682Y-97701000D01*
X67426318Y-97701000D01*
X67770803Y-97632478D01*
X68161453Y-97371453D01*
X68390942Y-97028000D01*
X72791814Y-97028000D01*
X72658797Y-97161017D01*
X72479000Y-97595085D01*
X72479000Y-98064915D01*
X72658797Y-98498983D01*
X72991017Y-98831203D01*
X73425085Y-99011000D01*
X73894915Y-99011000D01*
X74328983Y-98831203D01*
X74661203Y-98498983D01*
X74841000Y-98064915D01*
X74841000Y-97595085D01*
X74661203Y-97161017D01*
X74528186Y-97028000D01*
X77259580Y-97028000D01*
X77778755Y-97547175D01*
X77759000Y-97594867D01*
X77759000Y-97985133D01*
X77908348Y-98345692D01*
X78184308Y-98621652D01*
X78544867Y-98771000D01*
X78935133Y-98771000D01*
X79295692Y-98621652D01*
X79320191Y-98597153D01*
X79365314Y-98664686D01*
X79491341Y-98748894D01*
X79640000Y-98778464D01*
X80840000Y-98778464D01*
X80988659Y-98748894D01*
X81114686Y-98664686D01*
X81198894Y-98538659D01*
X81228464Y-98390000D01*
X81228464Y-97190000D01*
X81198894Y-97041341D01*
X81114686Y-96915314D01*
X80988659Y-96831106D01*
X80840000Y-96801536D01*
X79640000Y-96801536D01*
X79491341Y-96831106D01*
X79365314Y-96915314D01*
X79320191Y-96982847D01*
X79295692Y-96958348D01*
X78935133Y-96809000D01*
X78544867Y-96809000D01*
X78497175Y-96828755D01*
X77864588Y-96196168D01*
X77836247Y-96153753D01*
X77668212Y-96041475D01*
X77520032Y-96012000D01*
X77520028Y-96012000D01*
X77470000Y-96002049D01*
X77419972Y-96012000D01*
X68390942Y-96012000D01*
X68161453Y-95668547D01*
X67770803Y-95407522D01*
X67426318Y-95339000D01*
X67193682Y-95339000D01*
X66849197Y-95407522D01*
X66458547Y-95668547D01*
X66197522Y-96059197D01*
X66105863Y-96520000D01*
X63411000Y-96520000D01*
X63411000Y-96285085D01*
X63231203Y-95851017D01*
X62898983Y-95518797D01*
X62464915Y-95339000D01*
X61995085Y-95339000D01*
X61561017Y-95518797D01*
X61228797Y-95851017D01*
X61049000Y-96285085D01*
X51256000Y-96285085D01*
X51256000Y-92710000D01*
X64835863Y-92710000D01*
X64927522Y-93170803D01*
X65188547Y-93561453D01*
X65579197Y-93822478D01*
X65923682Y-93891000D01*
X66156318Y-93891000D01*
X66445131Y-93833552D01*
X66915414Y-94303835D01*
X66943753Y-94346247D01*
X66986165Y-94374586D01*
X66986167Y-94374588D01*
X67037597Y-94408952D01*
X67111788Y-94458525D01*
X67259968Y-94488000D01*
X67259971Y-94488000D01*
X67309999Y-94497951D01*
X67360027Y-94488000D01*
X74879972Y-94488000D01*
X74930000Y-94497951D01*
X74980028Y-94488000D01*
X74980032Y-94488000D01*
X75128212Y-94458525D01*
X75296247Y-94346247D01*
X75324588Y-94303833D01*
X75794589Y-93833832D01*
X75794591Y-93833829D01*
X75794868Y-93833552D01*
X76083682Y-93891000D01*
X76316318Y-93891000D01*
X76605131Y-93833552D01*
X76986415Y-94214836D01*
X77014754Y-94257248D01*
X77057166Y-94285587D01*
X77057168Y-94285589D01*
X77122287Y-94329099D01*
X77182789Y-94369526D01*
X77330969Y-94399001D01*
X77330973Y-94399001D01*
X77381001Y-94408952D01*
X77431029Y-94399001D01*
X85128971Y-94399001D01*
X85178999Y-94408952D01*
X85229027Y-94399001D01*
X85229031Y-94399001D01*
X85377211Y-94369526D01*
X85545246Y-94257248D01*
X85573587Y-94214834D01*
X85954589Y-93833832D01*
X85954591Y-93833829D01*
X85954868Y-93833552D01*
X86243682Y-93891000D01*
X86476318Y-93891000D01*
X86820803Y-93822478D01*
X87033001Y-93680691D01*
X87033001Y-95782776D01*
X86036166Y-96779612D01*
X85993754Y-96807951D01*
X85965415Y-96850363D01*
X85965412Y-96850366D01*
X85935186Y-96895603D01*
X85838659Y-96831106D01*
X85690000Y-96801536D01*
X84490000Y-96801536D01*
X84341341Y-96831106D01*
X84215314Y-96915314D01*
X84170191Y-96982847D01*
X84145692Y-96958348D01*
X83785133Y-96809000D01*
X83394867Y-96809000D01*
X83034308Y-96958348D01*
X82758348Y-97234308D01*
X82609000Y-97594867D01*
X82609000Y-97985133D01*
X82758348Y-98345692D01*
X83034308Y-98621652D01*
X83394867Y-98771000D01*
X83785133Y-98771000D01*
X84145692Y-98621652D01*
X84170191Y-98597153D01*
X84215314Y-98664686D01*
X84341341Y-98748894D01*
X84490000Y-98778464D01*
X85690000Y-98778464D01*
X85838659Y-98748894D01*
X85852001Y-98739979D01*
X85852000Y-101789058D01*
X85508547Y-102018547D01*
X85247522Y-102409197D01*
X85155863Y-102870000D01*
X85247522Y-103330803D01*
X85508547Y-103721453D01*
X85899197Y-103982478D01*
X86243682Y-104051000D01*
X86476318Y-104051000D01*
X86820803Y-103982478D01*
X87211453Y-103721453D01*
X87472478Y-103330803D01*
X87564137Y-102870000D01*
X87472478Y-102409197D01*
X87211453Y-102018547D01*
X86868000Y-101789058D01*
X86868000Y-97384618D01*
X87864837Y-96387782D01*
X87907248Y-96359444D01*
X87935587Y-96317032D01*
X87935589Y-96317030D01*
X87979099Y-96251911D01*
X88019526Y-96191409D01*
X88049001Y-96043229D01*
X88049001Y-96043225D01*
X88058952Y-95993197D01*
X88049001Y-95943169D01*
X88049001Y-88861028D01*
X88058952Y-88811000D01*
X88049001Y-88760972D01*
X88049001Y-88760969D01*
X88019526Y-88612789D01*
X88007246Y-88594411D01*
X87935589Y-88487168D01*
X87935587Y-88487166D01*
X87907248Y-88444754D01*
X87864836Y-88416415D01*
X87483831Y-88035411D01*
X87483552Y-88035132D01*
X87564137Y-87630000D01*
X87472478Y-87169197D01*
X87211453Y-86778547D01*
X86820803Y-86517522D01*
X86476318Y-86449000D01*
X86243682Y-86449000D01*
X85899197Y-86517522D01*
X85508547Y-86778547D01*
X85247522Y-87169197D01*
X85155863Y-87630000D01*
X85247522Y-88090803D01*
X85508547Y-88481453D01*
X85899197Y-88742478D01*
X86232998Y-88808875D01*
X86232998Y-88899370D01*
X86010959Y-88778086D01*
X85504866Y-89017611D01*
X85128959Y-89432577D01*
X84968096Y-89820961D01*
X85090084Y-90042998D01*
X84998875Y-90042998D01*
X84932478Y-89709197D01*
X84671453Y-89318547D01*
X84280803Y-89057522D01*
X83936318Y-88989000D01*
X83703682Y-88989000D01*
X83359197Y-89057522D01*
X82968547Y-89318547D01*
X82707522Y-89709197D01*
X82615863Y-90170000D01*
X82707522Y-90630803D01*
X82968547Y-91021453D01*
X83359197Y-91282478D01*
X83703682Y-91351000D01*
X83936318Y-91351000D01*
X84280803Y-91282478D01*
X84671453Y-91021453D01*
X84932478Y-90630803D01*
X84998875Y-90297002D01*
X85090084Y-90297002D01*
X84968096Y-90519039D01*
X85128959Y-90907423D01*
X85504866Y-91322389D01*
X86010959Y-91561914D01*
X86232998Y-91440630D01*
X86232998Y-91531125D01*
X85899197Y-91597522D01*
X85508547Y-91858547D01*
X85247522Y-92249197D01*
X85155863Y-92710000D01*
X85236448Y-93115132D01*
X85236171Y-93115409D01*
X85236168Y-93115411D01*
X84968579Y-93383001D01*
X84790691Y-93383001D01*
X84932478Y-93170803D01*
X85024137Y-92710000D01*
X84932478Y-92249197D01*
X84671453Y-91858547D01*
X84280803Y-91597522D01*
X83936318Y-91529000D01*
X83703682Y-91529000D01*
X83359197Y-91597522D01*
X82968547Y-91858547D01*
X82707522Y-92249197D01*
X82615863Y-92710000D01*
X82707522Y-93170803D01*
X82849309Y-93383001D01*
X77591422Y-93383001D01*
X77323552Y-93115131D01*
X77404137Y-92710000D01*
X77312478Y-92249197D01*
X77051453Y-91858547D01*
X76660803Y-91597522D01*
X76316318Y-91529000D01*
X76083682Y-91529000D01*
X75739197Y-91597522D01*
X75348547Y-91858547D01*
X75087522Y-92249197D01*
X75021125Y-92582998D01*
X74929916Y-92582998D01*
X75051904Y-92360961D01*
X74891041Y-91972577D01*
X74515134Y-91557611D01*
X74009041Y-91318086D01*
X73787002Y-91439370D01*
X73787002Y-91348875D01*
X74120803Y-91282478D01*
X74511453Y-91021453D01*
X74772478Y-90630803D01*
X74864137Y-90170000D01*
X74772478Y-89709197D01*
X74511453Y-89318547D01*
X74120803Y-89057522D01*
X73776318Y-88989000D01*
X73543682Y-88989000D01*
X73199197Y-89057522D01*
X72808547Y-89318547D01*
X72547522Y-89709197D01*
X72455863Y-90170000D01*
X72547522Y-90630803D01*
X72808547Y-91021453D01*
X73199197Y-91282478D01*
X73532998Y-91348875D01*
X73532998Y-91439370D01*
X73310959Y-91318086D01*
X72804866Y-91557611D01*
X72428959Y-91972577D01*
X72268096Y-92360961D01*
X72390085Y-92583000D01*
X73533000Y-92583000D01*
X73533000Y-92563000D01*
X73787000Y-92563000D01*
X73787000Y-92583000D01*
X73807000Y-92583000D01*
X73807000Y-92837000D01*
X73787000Y-92837000D01*
X73787000Y-92857000D01*
X73533000Y-92857000D01*
X73533000Y-92837000D01*
X72390085Y-92837000D01*
X72268096Y-93059039D01*
X72428959Y-93447423D01*
X72451223Y-93472000D01*
X67520421Y-93472000D01*
X67163552Y-93115131D01*
X67244137Y-92710000D01*
X67152478Y-92249197D01*
X66891453Y-91858547D01*
X66500803Y-91597522D01*
X66156318Y-91529000D01*
X65923682Y-91529000D01*
X65579197Y-91597522D01*
X65188547Y-91858547D01*
X64927522Y-92249197D01*
X64835863Y-92710000D01*
X51256000Y-92710000D01*
X51256000Y-88900000D01*
X61025863Y-88900000D01*
X61117522Y-89360803D01*
X61378547Y-89751453D01*
X61769197Y-90012478D01*
X62113682Y-90081000D01*
X62346318Y-90081000D01*
X62690803Y-90012478D01*
X63081453Y-89751453D01*
X63342478Y-89360803D01*
X63434137Y-88900000D01*
X63342478Y-88439197D01*
X63081453Y-88048547D01*
X62690803Y-87787522D01*
X62346318Y-87719000D01*
X62113682Y-87719000D01*
X61769197Y-87787522D01*
X61378547Y-88048547D01*
X61117522Y-88439197D01*
X61025863Y-88900000D01*
X51256000Y-88900000D01*
X51256000Y-80996000D01*
X54953536Y-80996000D01*
X54953536Y-83596000D01*
X54983106Y-83744659D01*
X55067314Y-83870686D01*
X55193341Y-83954894D01*
X55342000Y-83984464D01*
X56150795Y-83984464D01*
X56163475Y-84048211D01*
X56247412Y-84173832D01*
X56247415Y-84173835D01*
X56275754Y-84216247D01*
X56318167Y-84244587D01*
X56374412Y-84300831D01*
X56402754Y-84343248D01*
X56570789Y-84455526D01*
X56718969Y-84485001D01*
X56718973Y-84485001D01*
X56769001Y-84494952D01*
X56819029Y-84485001D01*
X59636581Y-84485001D01*
X64916168Y-89764589D01*
X64916171Y-89764591D01*
X64916448Y-89764868D01*
X64835863Y-90170000D01*
X64927522Y-90630803D01*
X65188547Y-91021453D01*
X65579197Y-91282478D01*
X65923682Y-91351000D01*
X66156318Y-91351000D01*
X66500803Y-91282478D01*
X66891453Y-91021453D01*
X67152478Y-90630803D01*
X67244137Y-90170000D01*
X67152478Y-89709197D01*
X66891453Y-89318547D01*
X66500803Y-89057522D01*
X66156318Y-88989000D01*
X65923682Y-88989000D01*
X65634868Y-89046448D01*
X65634591Y-89046171D01*
X65634589Y-89046168D01*
X60539338Y-83950918D01*
X60920582Y-83793002D01*
X64855301Y-87727722D01*
X64927522Y-88090803D01*
X65188547Y-88481453D01*
X65579197Y-88742478D01*
X65923682Y-88811000D01*
X66156318Y-88811000D01*
X66500803Y-88742478D01*
X66891453Y-88481453D01*
X67152478Y-88090803D01*
X67244137Y-87630000D01*
X72455863Y-87630000D01*
X72547522Y-88090803D01*
X72808547Y-88481453D01*
X73199197Y-88742478D01*
X73543682Y-88811000D01*
X73776318Y-88811000D01*
X74120803Y-88742478D01*
X74511453Y-88481453D01*
X74772478Y-88090803D01*
X74864137Y-87630000D01*
X74772478Y-87169197D01*
X74511453Y-86778547D01*
X74120803Y-86517522D01*
X73776318Y-86449000D01*
X73543682Y-86449000D01*
X73199197Y-86517522D01*
X72808547Y-86778547D01*
X72547522Y-87169197D01*
X72455863Y-87630000D01*
X67244137Y-87630000D01*
X67152478Y-87169197D01*
X66891453Y-86778547D01*
X66500803Y-86517522D01*
X66156318Y-86449000D01*
X65923682Y-86449000D01*
X65579197Y-86517522D01*
X65281115Y-86716695D01*
X62854420Y-84290000D01*
X64851536Y-84290000D01*
X64851536Y-85890000D01*
X64881106Y-86038659D01*
X64965314Y-86164686D01*
X65091341Y-86248894D01*
X65240000Y-86278464D01*
X66840000Y-86278464D01*
X66988659Y-86248894D01*
X67114686Y-86164686D01*
X67198894Y-86038659D01*
X67228464Y-85890000D01*
X67228464Y-85090000D01*
X72455863Y-85090000D01*
X72547522Y-85550803D01*
X72808547Y-85941453D01*
X73199197Y-86202478D01*
X73543682Y-86271000D01*
X73776318Y-86271000D01*
X74120803Y-86202478D01*
X74511453Y-85941453D01*
X74772478Y-85550803D01*
X74864137Y-85090000D01*
X74772478Y-84629197D01*
X74511453Y-84238547D01*
X74120803Y-83977522D01*
X73776318Y-83909000D01*
X73543682Y-83909000D01*
X73199197Y-83977522D01*
X72808547Y-84238547D01*
X72547522Y-84629197D01*
X72455863Y-85090000D01*
X67228464Y-85090000D01*
X67228464Y-84290000D01*
X67198894Y-84141341D01*
X67114686Y-84015314D01*
X66988659Y-83931106D01*
X66840000Y-83901536D01*
X65240000Y-83901536D01*
X65091341Y-83931106D01*
X64965314Y-84015314D01*
X64881106Y-84141341D01*
X64851536Y-84290000D01*
X62854420Y-84290000D01*
X61639002Y-83074582D01*
X61823000Y-82630372D01*
X61823000Y-81961628D01*
X61567083Y-81343790D01*
X61268378Y-81045085D01*
X64859000Y-81045085D01*
X64859000Y-81514915D01*
X65038797Y-81948983D01*
X65371017Y-82281203D01*
X65805085Y-82461000D01*
X66274915Y-82461000D01*
X66708983Y-82281203D01*
X67041203Y-81948983D01*
X67221000Y-81514915D01*
X67221000Y-81280000D01*
X72455863Y-81280000D01*
X72547522Y-81740803D01*
X72808547Y-82131453D01*
X73199197Y-82392478D01*
X73543682Y-82461000D01*
X73776318Y-82461000D01*
X74120803Y-82392478D01*
X74511453Y-82131453D01*
X74772478Y-81740803D01*
X74864137Y-81280000D01*
X74995863Y-81280000D01*
X75087522Y-81740803D01*
X75348547Y-82131453D01*
X75739197Y-82392478D01*
X76083682Y-82461000D01*
X76316318Y-82461000D01*
X76605132Y-82403552D01*
X76605411Y-82403831D01*
X76873002Y-82671423D01*
X76873002Y-83901536D01*
X75400000Y-83901536D01*
X75251341Y-83931106D01*
X75125314Y-84015314D01*
X75041106Y-84141341D01*
X75011536Y-84290000D01*
X75011536Y-85890000D01*
X75041106Y-86038659D01*
X75125314Y-86164686D01*
X75251341Y-86248894D01*
X75400000Y-86278464D01*
X76873001Y-86278464D01*
X76873001Y-86659309D01*
X76660803Y-86517522D01*
X76316318Y-86449000D01*
X76083682Y-86449000D01*
X75739197Y-86517522D01*
X75348547Y-86778547D01*
X75087522Y-87169197D01*
X74995863Y-87630000D01*
X75087522Y-88090803D01*
X75348547Y-88481453D01*
X75739197Y-88742478D01*
X76083682Y-88811000D01*
X76316318Y-88811000D01*
X76660803Y-88742478D01*
X76873001Y-88600691D01*
X76873001Y-88778578D01*
X76605131Y-89046448D01*
X76316318Y-88989000D01*
X76083682Y-88989000D01*
X75739197Y-89057522D01*
X75348547Y-89318547D01*
X75087522Y-89709197D01*
X74995863Y-90170000D01*
X75087522Y-90630803D01*
X75348547Y-91021453D01*
X75739197Y-91282478D01*
X76083682Y-91351000D01*
X76316318Y-91351000D01*
X76660803Y-91282478D01*
X77051453Y-91021453D01*
X77312478Y-90630803D01*
X77404137Y-90170000D01*
X77323552Y-89764869D01*
X77704837Y-89383584D01*
X77747248Y-89355246D01*
X77775587Y-89312834D01*
X77775589Y-89312832D01*
X77847246Y-89205589D01*
X77859526Y-89187211D01*
X77889001Y-89039031D01*
X77889001Y-89039027D01*
X77898952Y-88988999D01*
X77889001Y-88938971D01*
X77889001Y-87630000D01*
X82615863Y-87630000D01*
X82707522Y-88090803D01*
X82968547Y-88481453D01*
X83359197Y-88742478D01*
X83703682Y-88811000D01*
X83936318Y-88811000D01*
X84280803Y-88742478D01*
X84671453Y-88481453D01*
X84932478Y-88090803D01*
X85024137Y-87630000D01*
X84932478Y-87169197D01*
X84671453Y-86778547D01*
X84280803Y-86517522D01*
X83936318Y-86449000D01*
X83703682Y-86449000D01*
X83359197Y-86517522D01*
X82968547Y-86778547D01*
X82707522Y-87169197D01*
X82615863Y-87630000D01*
X77889001Y-87630000D01*
X77889001Y-85090000D01*
X82615863Y-85090000D01*
X82707522Y-85550803D01*
X82968547Y-85941453D01*
X83359197Y-86202478D01*
X83703682Y-86271000D01*
X83936318Y-86271000D01*
X84280803Y-86202478D01*
X84671453Y-85941453D01*
X84932478Y-85550803D01*
X85024137Y-85090000D01*
X84932478Y-84629197D01*
X84705833Y-84290000D01*
X85171536Y-84290000D01*
X85171536Y-85890000D01*
X85201106Y-86038659D01*
X85285314Y-86164686D01*
X85411341Y-86248894D01*
X85560000Y-86278464D01*
X87160000Y-86278464D01*
X87308659Y-86248894D01*
X87434686Y-86164686D01*
X87518894Y-86038659D01*
X87548464Y-85890000D01*
X87548464Y-84290000D01*
X87518894Y-84141341D01*
X87434686Y-84015314D01*
X87308659Y-83931106D01*
X87160000Y-83901536D01*
X85560000Y-83901536D01*
X85411341Y-83931106D01*
X85285314Y-84015314D01*
X85201106Y-84141341D01*
X85171536Y-84290000D01*
X84705833Y-84290000D01*
X84671453Y-84238547D01*
X84280803Y-83977522D01*
X83936318Y-83909000D01*
X83703682Y-83909000D01*
X83359197Y-83977522D01*
X82968547Y-84238547D01*
X82707522Y-84629197D01*
X82615863Y-85090000D01*
X77889001Y-85090000D01*
X77889001Y-82511028D01*
X77898952Y-82461000D01*
X77889001Y-82410972D01*
X77889001Y-82410969D01*
X77864491Y-82287745D01*
X82991861Y-82287745D01*
X83065995Y-82533864D01*
X83603223Y-82726965D01*
X84173454Y-82699778D01*
X84574005Y-82533864D01*
X84648139Y-82287745D01*
X83820000Y-81459605D01*
X82991861Y-82287745D01*
X77864491Y-82287745D01*
X77859526Y-82262789D01*
X77848287Y-82245968D01*
X77775589Y-82137168D01*
X77775587Y-82137166D01*
X77747248Y-82094754D01*
X77704836Y-82066415D01*
X77323831Y-81685411D01*
X77323552Y-81685132D01*
X77404137Y-81280000D01*
X77361018Y-81063223D01*
X82373035Y-81063223D01*
X82400222Y-81633454D01*
X82566136Y-82034005D01*
X82812255Y-82108139D01*
X83640395Y-81280000D01*
X83999605Y-81280000D01*
X84827745Y-82108139D01*
X85073864Y-82034005D01*
X85266965Y-81496777D01*
X85239778Y-80926546D01*
X85073864Y-80525995D01*
X84827745Y-80451861D01*
X83999605Y-81280000D01*
X83640395Y-81280000D01*
X82812255Y-80451861D01*
X82566136Y-80525995D01*
X82373035Y-81063223D01*
X77361018Y-81063223D01*
X77312478Y-80819197D01*
X77051453Y-80428547D01*
X76817547Y-80272255D01*
X82991861Y-80272255D01*
X83820000Y-81100395D01*
X84648139Y-80272255D01*
X84574005Y-80026136D01*
X84036777Y-79833035D01*
X83466546Y-79860222D01*
X83065995Y-80026136D01*
X82991861Y-80272255D01*
X76817547Y-80272255D01*
X76660803Y-80167522D01*
X76316318Y-80099000D01*
X76083682Y-80099000D01*
X75739197Y-80167522D01*
X75348547Y-80428547D01*
X75087522Y-80819197D01*
X74995863Y-81280000D01*
X74864137Y-81280000D01*
X74772478Y-80819197D01*
X74511453Y-80428547D01*
X74120803Y-80167522D01*
X73776318Y-80099000D01*
X73543682Y-80099000D01*
X73199197Y-80167522D01*
X72808547Y-80428547D01*
X72547522Y-80819197D01*
X72455863Y-81280000D01*
X67221000Y-81280000D01*
X67221000Y-81045085D01*
X67041203Y-80611017D01*
X66708983Y-80278797D01*
X66274915Y-80099000D01*
X65805085Y-80099000D01*
X65371017Y-80278797D01*
X65038797Y-80611017D01*
X64859000Y-81045085D01*
X61268378Y-81045085D01*
X61094210Y-80870917D01*
X60476372Y-80615000D01*
X59807628Y-80615000D01*
X59189790Y-80870917D01*
X58716917Y-81343790D01*
X58461000Y-81961628D01*
X58461000Y-82630372D01*
X58716917Y-83248210D01*
X58937708Y-83469001D01*
X58330464Y-83469001D01*
X58330464Y-80996000D01*
X58300894Y-80847341D01*
X58216686Y-80721314D01*
X58090659Y-80637106D01*
X57942000Y-80607536D01*
X55342000Y-80607536D01*
X55193341Y-80637106D01*
X55067314Y-80721314D01*
X54983106Y-80847341D01*
X54953536Y-80996000D01*
X51256000Y-80996000D01*
X51256000Y-75983223D01*
X81643035Y-75983223D01*
X81670222Y-76553454D01*
X81836136Y-76954005D01*
X82082255Y-77028139D01*
X82910395Y-76200000D01*
X82082255Y-75371861D01*
X81836136Y-75445995D01*
X81643035Y-75983223D01*
X51256000Y-75983223D01*
X51256000Y-75192255D01*
X82261861Y-75192255D01*
X83090000Y-76020395D01*
X83104142Y-76006252D01*
X83283748Y-76185858D01*
X83269605Y-76200000D01*
X83283748Y-76214142D01*
X83104142Y-76393748D01*
X83090000Y-76379605D01*
X82261861Y-77207745D01*
X82335995Y-77453864D01*
X82873223Y-77646965D01*
X83443454Y-77619778D01*
X83844005Y-77453864D01*
X83918139Y-77207747D01*
X84033014Y-77322622D01*
X84054660Y-77300976D01*
X84141341Y-77358894D01*
X84290000Y-77388464D01*
X85890000Y-77388464D01*
X86038659Y-77358894D01*
X86164686Y-77274686D01*
X86248894Y-77148659D01*
X86278464Y-77000000D01*
X86278464Y-75400000D01*
X86248894Y-75251341D01*
X86164686Y-75125314D01*
X86038659Y-75041106D01*
X85890000Y-75011536D01*
X84290000Y-75011536D01*
X84141341Y-75041106D01*
X84054660Y-75099024D01*
X84033014Y-75077378D01*
X83918139Y-75192253D01*
X83844005Y-74946136D01*
X83306777Y-74753035D01*
X82736546Y-74780222D01*
X82335995Y-74946136D01*
X82261861Y-75192255D01*
X51256000Y-75192255D01*
X51256000Y-72390000D01*
X87695863Y-72390000D01*
X87787522Y-72850803D01*
X88048547Y-73241453D01*
X88439197Y-73502478D01*
X88783682Y-73571000D01*
X89016318Y-73571000D01*
X89360803Y-73502478D01*
X89476629Y-73425085D01*
X105499000Y-73425085D01*
X105499000Y-73894915D01*
X105678797Y-74328983D01*
X106011017Y-74661203D01*
X106445085Y-74841000D01*
X106914915Y-74841000D01*
X107348983Y-74661203D01*
X107681203Y-74328983D01*
X107861000Y-73894915D01*
X107861000Y-73425085D01*
X107681203Y-72991017D01*
X107348983Y-72658797D01*
X106914915Y-72479000D01*
X106445085Y-72479000D01*
X106011017Y-72658797D01*
X105678797Y-72991017D01*
X105499000Y-73425085D01*
X89476629Y-73425085D01*
X89751453Y-73241453D01*
X90012478Y-72850803D01*
X90104137Y-72390000D01*
X90012478Y-71929197D01*
X89751453Y-71538547D01*
X89360803Y-71277522D01*
X89016318Y-71209000D01*
X88783682Y-71209000D01*
X88439197Y-71277522D01*
X88048547Y-71538547D01*
X87787522Y-71929197D01*
X87695863Y-72390000D01*
X51256000Y-72390000D01*
X51256000Y-70320000D01*
X95331536Y-70320000D01*
X95331536Y-71920000D01*
X95361106Y-72068659D01*
X95445314Y-72194686D01*
X95571341Y-72278894D01*
X95720000Y-72308464D01*
X97320000Y-72308464D01*
X97468659Y-72278894D01*
X97594686Y-72194686D01*
X97678894Y-72068659D01*
X97708464Y-71920000D01*
X97708464Y-70320000D01*
X97678894Y-70171341D01*
X97594686Y-70045314D01*
X97468659Y-69961106D01*
X97368919Y-69941267D01*
X97521203Y-69788983D01*
X97701000Y-69354915D01*
X97701000Y-69050000D01*
X100411536Y-69050000D01*
X100411536Y-70650000D01*
X100441106Y-70798659D01*
X100525314Y-70924686D01*
X100651341Y-71008894D01*
X100800000Y-71038464D01*
X102400000Y-71038464D01*
X102548659Y-71008894D01*
X102674686Y-70924686D01*
X102758894Y-70798659D01*
X102778733Y-70698919D01*
X102931017Y-70851203D01*
X103365085Y-71031000D01*
X103834915Y-71031000D01*
X104268983Y-70851203D01*
X104601203Y-70518983D01*
X104781000Y-70084915D01*
X104781000Y-69615085D01*
X104601203Y-69181017D01*
X104268983Y-68848797D01*
X103834915Y-68669000D01*
X103365085Y-68669000D01*
X102931017Y-68848797D01*
X102778733Y-69001081D01*
X102758894Y-68901341D01*
X102674686Y-68775314D01*
X102548659Y-68691106D01*
X102400000Y-68661536D01*
X100800000Y-68661536D01*
X100651341Y-68691106D01*
X100525314Y-68775314D01*
X100441106Y-68901341D01*
X100411536Y-69050000D01*
X97701000Y-69050000D01*
X97701000Y-68885085D01*
X97521203Y-68451017D01*
X97188983Y-68118797D01*
X96754915Y-67939000D01*
X96285085Y-67939000D01*
X95851017Y-68118797D01*
X95518797Y-68451017D01*
X95339000Y-68885085D01*
X95339000Y-69354915D01*
X95518797Y-69788983D01*
X95671081Y-69941267D01*
X95571341Y-69961106D01*
X95445314Y-70045314D01*
X95361106Y-70171341D01*
X95331536Y-70320000D01*
X51256000Y-70320000D01*
X51256000Y-64535085D01*
X87719000Y-64535085D01*
X87719000Y-65004915D01*
X87898797Y-65438983D01*
X88231017Y-65771203D01*
X88665085Y-65951000D01*
X89134915Y-65951000D01*
X89568983Y-65771203D01*
X89901203Y-65438983D01*
X90081000Y-65004915D01*
X90081000Y-64535085D01*
X89901203Y-64101017D01*
X89568983Y-63768797D01*
X89134915Y-63589000D01*
X88665085Y-63589000D01*
X88231017Y-63768797D01*
X87898797Y-64101017D01*
X87719000Y-64535085D01*
X51256000Y-64535085D01*
X51256000Y-63265085D01*
X93339000Y-63265085D01*
X93339000Y-63734915D01*
X93518797Y-64168983D01*
X93851017Y-64501203D01*
X94285085Y-64681000D01*
X94754915Y-64681000D01*
X95188983Y-64501203D01*
X95341267Y-64348919D01*
X95361106Y-64448659D01*
X95445314Y-64574686D01*
X95571341Y-64658894D01*
X95720000Y-64688464D01*
X97320000Y-64688464D01*
X97468659Y-64658894D01*
X97594686Y-64574686D01*
X97678894Y-64448659D01*
X97708464Y-64300000D01*
X97708464Y-63265085D01*
X99689000Y-63265085D01*
X99689000Y-63734915D01*
X99868797Y-64168983D01*
X100201017Y-64501203D01*
X100635085Y-64681000D01*
X101104915Y-64681000D01*
X101538983Y-64501203D01*
X101691267Y-64348919D01*
X101711106Y-64448659D01*
X101795314Y-64574686D01*
X101921341Y-64658894D01*
X102070000Y-64688464D01*
X103670000Y-64688464D01*
X103818659Y-64658894D01*
X103944686Y-64574686D01*
X104028894Y-64448659D01*
X104058464Y-64300000D01*
X104058464Y-62700000D01*
X104028894Y-62551341D01*
X103944686Y-62425314D01*
X103818659Y-62341106D01*
X103670000Y-62311536D01*
X102070000Y-62311536D01*
X101921341Y-62341106D01*
X101795314Y-62425314D01*
X101711106Y-62551341D01*
X101691267Y-62651081D01*
X101538983Y-62498797D01*
X101104915Y-62319000D01*
X100635085Y-62319000D01*
X100201017Y-62498797D01*
X99868797Y-62831017D01*
X99689000Y-63265085D01*
X97708464Y-63265085D01*
X97708464Y-62700000D01*
X97678894Y-62551341D01*
X97594686Y-62425314D01*
X97468659Y-62341106D01*
X97320000Y-62311536D01*
X95720000Y-62311536D01*
X95571341Y-62341106D01*
X95445314Y-62425314D01*
X95361106Y-62551341D01*
X95341267Y-62651081D01*
X95188983Y-62498797D01*
X94754915Y-62319000D01*
X94285085Y-62319000D01*
X93851017Y-62498797D01*
X93518797Y-62831017D01*
X93339000Y-63265085D01*
X51256000Y-63265085D01*
X51256000Y-51256000D01*
X151944001Y-51256000D01*
X151944000Y-113844000D01*
G36*
X86487000Y-90043000D02*
X86507000Y-90043000D01*
X86507000Y-90297000D01*
X86487000Y-90297000D01*
X86487000Y-90317000D01*
X86233000Y-90317000D01*
X86233000Y-90297000D01*
X86213000Y-90297000D01*
X86213000Y-90043000D01*
X86233000Y-90043000D01*
X86233000Y-90023000D01*
X86487000Y-90023000D01*
X86487000Y-90043000D01*
X86487000Y-90043000D01*
G37*
X86487000Y-90043000D02*
X86507000Y-90043000D01*
X86507000Y-90297000D01*
X86487000Y-90297000D01*
X86487000Y-90317000D01*
X86233000Y-90317000D01*
X86233000Y-90297000D01*
X86213000Y-90297000D01*
X86213000Y-90043000D01*
X86233000Y-90043000D01*
X86233000Y-90023000D01*
X86487000Y-90023000D01*
X86487000Y-90043000D01*
G04 #@! TD*
M02*
